<?xml version="1.0" encoding="utf-8" standalone="no"?>
<!DOCTYPE svg PUBLIC "-//W3C//DTD SVG 1.1//EN"
  "http://www.w3.org/Graphics/SVG/1.1/DTD/svg11.dtd">
<svg xmlns:xlink="http://www.w3.org/1999/xlink" width="1353.6pt" height="646.877813pt" viewBox="0 0 1353.6 646.877813" xmlns="http://www.w3.org/2000/svg" version="1.1">
 <metadata>
  <rdf:RDF xmlns:dc="http://purl.org/dc/elements/1.1/" xmlns:cc="http://creativecommons.org/ns#" xmlns:rdf="http://www.w3.org/1999/02/22-rdf-syntax-ns#">
   <cc:Work>
    <dc:type rdf:resource="http://purl.org/dc/dcmitype/StillImage"/>
    <dc:date>2026-03-19T19:32:30.084717</dc:date>
    <dc:format>image/svg+xml</dc:format>
    <dc:creator>
     <cc:Agent>
      <dc:title>Matplotlib v3.5.1, https://matplotlib.org/</dc:title>
     </cc:Agent>
    </dc:creator>
   </cc:Work>
  </rdf:RDF>
 </metadata>
 <defs>
  <style type="text/css">*{stroke-linejoin: round; stroke-linecap: butt}</style>
 </defs>
 <g id="figure_1">
  <g id="patch_1">
   <path d="M 0 646.877813 
L 1353.6 646.877813 
L 1353.6 0 
L 0 0 
z
" style="fill: #eceff1"/>
  </g>
  <g id="axes_1">
   <g id="text_1">
    <!-- AEB State Machine  —  TTC, Distance (LPB) and Driver Override Transitions -->
    <g style="fill: #212121" transform="translate(380.807188 17.837813)scale(0.14 -0.14)">
     <defs>
      <path id="DejaVuSans-Bold-41" d="M 3419 850 
L 1538 850 
L 1241 0 
L 31 0 
L 1759 4666 
L 3194 4666 
L 4922 0 
L 3713 0 
L 3419 850 
z
M 1838 1716 
L 3116 1716 
L 2478 3572 
L 1838 1716 
z
" transform="scale(0.015625)"/>
      <path id="DejaVuSans-Bold-45" d="M 588 4666 
L 3834 4666 
L 3834 3756 
L 1791 3756 
L 1791 2888 
L 3713 2888 
L 3713 1978 
L 1791 1978 
L 1791 909 
L 3903 909 
L 3903 0 
L 588 0 
L 588 4666 
z
" transform="scale(0.015625)"/>
      <path id="DejaVuSans-Bold-42" d="M 2456 2859 
Q 2741 2859 2887 2984 
Q 3034 3109 3034 3353 
Q 3034 3594 2887 3720 
Q 2741 3847 2456 3847 
L 1791 3847 
L 1791 2859 
L 2456 2859 
z
M 2497 819 
Q 2859 819 3042 972 
Q 3225 1125 3225 1434 
Q 3225 1738 3044 1889 
Q 2863 2041 2497 2041 
L 1791 2041 
L 1791 819 
L 2497 819 
z
M 3616 2497 
Q 4003 2384 4215 2081 
Q 4428 1778 4428 1338 
Q 4428 663 3972 331 
Q 3516 0 2584 0 
L 588 0 
L 588 4666 
L 2394 4666 
Q 3366 4666 3802 4372 
Q 4238 4078 4238 3431 
Q 4238 3091 4078 2852 
Q 3919 2613 3616 2497 
z
" transform="scale(0.015625)"/>
      <path id="DejaVuSans-Bold-20" transform="scale(0.015625)"/>
      <path id="DejaVuSans-Bold-53" d="M 3834 4519 
L 3834 3531 
Q 3450 3703 3084 3790 
Q 2719 3878 2394 3878 
Q 1963 3878 1756 3759 
Q 1550 3641 1550 3391 
Q 1550 3203 1689 3098 
Q 1828 2994 2194 2919 
L 2706 2816 
Q 3484 2659 3812 2340 
Q 4141 2022 4141 1434 
Q 4141 663 3683 286 
Q 3225 -91 2284 -91 
Q 1841 -91 1394 -6 
Q 947 78 500 244 
L 500 1259 
Q 947 1022 1364 901 
Q 1781 781 2169 781 
Q 2563 781 2772 912 
Q 2981 1044 2981 1288 
Q 2981 1506 2839 1625 
Q 2697 1744 2272 1838 
L 1806 1941 
Q 1106 2091 782 2419 
Q 459 2747 459 3303 
Q 459 4000 909 4375 
Q 1359 4750 2203 4750 
Q 2588 4750 2994 4692 
Q 3400 4634 3834 4519 
z
" transform="scale(0.015625)"/>
      <path id="DejaVuSans-Bold-74" d="M 1759 4494 
L 1759 3500 
L 2913 3500 
L 2913 2700 
L 1759 2700 
L 1759 1216 
Q 1759 972 1856 886 
Q 1953 800 2241 800 
L 2816 800 
L 2816 0 
L 1856 0 
Q 1194 0 917 276 
Q 641 553 641 1216 
L 641 2700 
L 84 2700 
L 84 3500 
L 641 3500 
L 641 4494 
L 1759 4494 
z
" transform="scale(0.015625)"/>
      <path id="DejaVuSans-Bold-61" d="M 2106 1575 
Q 1756 1575 1579 1456 
Q 1403 1338 1403 1106 
Q 1403 894 1545 773 
Q 1688 653 1941 653 
Q 2256 653 2472 879 
Q 2688 1106 2688 1447 
L 2688 1575 
L 2106 1575 
z
M 3816 1997 
L 3816 0 
L 2688 0 
L 2688 519 
Q 2463 200 2181 54 
Q 1900 -91 1497 -91 
Q 953 -91 614 226 
Q 275 544 275 1050 
Q 275 1666 698 1953 
Q 1122 2241 2028 2241 
L 2688 2241 
L 2688 2328 
Q 2688 2594 2478 2717 
Q 2269 2841 1825 2841 
Q 1466 2841 1156 2769 
Q 847 2697 581 2553 
L 581 3406 
Q 941 3494 1303 3539 
Q 1666 3584 2028 3584 
Q 2975 3584 3395 3211 
Q 3816 2838 3816 1997 
z
" transform="scale(0.015625)"/>
      <path id="DejaVuSans-Bold-65" d="M 4031 1759 
L 4031 1441 
L 1416 1441 
Q 1456 1047 1700 850 
Q 1944 653 2381 653 
Q 2734 653 3104 758 
Q 3475 863 3866 1075 
L 3866 213 
Q 3469 63 3072 -14 
Q 2675 -91 2278 -91 
Q 1328 -91 801 392 
Q 275 875 275 1747 
Q 275 2603 792 3093 
Q 1309 3584 2216 3584 
Q 3041 3584 3536 3087 
Q 4031 2591 4031 1759 
z
M 2881 2131 
Q 2881 2450 2695 2645 
Q 2509 2841 2209 2841 
Q 1884 2841 1681 2658 
Q 1478 2475 1428 2131 
L 2881 2131 
z
" transform="scale(0.015625)"/>
      <path id="DejaVuSans-Bold-4d" d="M 588 4666 
L 2119 4666 
L 3181 2169 
L 4250 4666 
L 5778 4666 
L 5778 0 
L 4641 0 
L 4641 3413 
L 3566 897 
L 2803 897 
L 1728 3413 
L 1728 0 
L 588 0 
L 588 4666 
z
" transform="scale(0.015625)"/>
      <path id="DejaVuSans-Bold-63" d="M 3366 3391 
L 3366 2478 
Q 3138 2634 2908 2709 
Q 2678 2784 2431 2784 
Q 1963 2784 1702 2511 
Q 1441 2238 1441 1747 
Q 1441 1256 1702 982 
Q 1963 709 2431 709 
Q 2694 709 2930 787 
Q 3166 866 3366 1019 
L 3366 103 
Q 3103 6 2833 -42 
Q 2563 -91 2291 -91 
Q 1344 -91 809 395 
Q 275 881 275 1747 
Q 275 2613 809 3098 
Q 1344 3584 2291 3584 
Q 2566 3584 2833 3536 
Q 3100 3488 3366 3391 
z
" transform="scale(0.015625)"/>
      <path id="DejaVuSans-Bold-68" d="M 4056 2131 
L 4056 0 
L 2931 0 
L 2931 347 
L 2931 1625 
Q 2931 2084 2911 2256 
Q 2891 2428 2841 2509 
Q 2775 2619 2662 2680 
Q 2550 2741 2406 2741 
Q 2056 2741 1856 2470 
Q 1656 2200 1656 1722 
L 1656 0 
L 538 0 
L 538 4863 
L 1656 4863 
L 1656 2988 
Q 1909 3294 2193 3439 
Q 2478 3584 2822 3584 
Q 3428 3584 3742 3212 
Q 4056 2841 4056 2131 
z
" transform="scale(0.015625)"/>
      <path id="DejaVuSans-Bold-69" d="M 538 3500 
L 1656 3500 
L 1656 0 
L 538 0 
L 538 3500 
z
M 538 4863 
L 1656 4863 
L 1656 3950 
L 538 3950 
L 538 4863 
z
" transform="scale(0.015625)"/>
      <path id="DejaVuSans-Bold-6e" d="M 4056 2131 
L 4056 0 
L 2931 0 
L 2931 347 
L 2931 1631 
Q 2931 2084 2911 2256 
Q 2891 2428 2841 2509 
Q 2775 2619 2662 2680 
Q 2550 2741 2406 2741 
Q 2056 2741 1856 2470 
Q 1656 2200 1656 1722 
L 1656 0 
L 538 0 
L 538 3500 
L 1656 3500 
L 1656 2988 
Q 1909 3294 2193 3439 
Q 2478 3584 2822 3584 
Q 3428 3584 3742 3212 
Q 4056 2841 4056 2131 
z
" transform="scale(0.015625)"/>
      <path id="DejaVuSans-Bold-2014" d="M 344 2156 
L 6056 2156 
L 6056 1350 
L 344 1350 
L 344 2156 
z
" transform="scale(0.015625)"/>
      <path id="DejaVuSans-Bold-54" d="M 31 4666 
L 4331 4666 
L 4331 3756 
L 2784 3756 
L 2784 0 
L 1581 0 
L 1581 3756 
L 31 3756 
L 31 4666 
z
" transform="scale(0.015625)"/>
      <path id="DejaVuSans-Bold-43" d="M 4288 256 
Q 3956 84 3597 -3 
Q 3238 -91 2847 -91 
Q 1681 -91 1000 561 
Q 319 1213 319 2328 
Q 319 3447 1000 4098 
Q 1681 4750 2847 4750 
Q 3238 4750 3597 4662 
Q 3956 4575 4288 4403 
L 4288 3438 
Q 3953 3666 3628 3772 
Q 3303 3878 2944 3878 
Q 2300 3878 1931 3465 
Q 1563 3053 1563 2328 
Q 1563 1606 1931 1193 
Q 2300 781 2944 781 
Q 3303 781 3628 887 
Q 3953 994 4288 1222 
L 4288 256 
z
" transform="scale(0.015625)"/>
      <path id="DejaVuSans-Bold-2c" d="M 653 1209 
L 1778 1209 
L 1778 256 
L 1006 -909 
L 341 -909 
L 653 256 
L 653 1209 
z
" transform="scale(0.015625)"/>
      <path id="DejaVuSans-Bold-44" d="M 1791 3756 
L 1791 909 
L 2222 909 
Q 2959 909 3348 1275 
Q 3738 1641 3738 2338 
Q 3738 3031 3350 3393 
Q 2963 3756 2222 3756 
L 1791 3756 
z
M 588 4666 
L 1856 4666 
Q 2919 4666 3439 4514 
Q 3959 4363 4331 4000 
Q 4659 3684 4818 3271 
Q 4978 2859 4978 2338 
Q 4978 1809 4818 1395 
Q 4659 981 4331 666 
Q 3956 303 3431 151 
Q 2906 0 1856 0 
L 588 0 
L 588 4666 
z
" transform="scale(0.015625)"/>
      <path id="DejaVuSans-Bold-73" d="M 3272 3391 
L 3272 2541 
Q 2913 2691 2578 2766 
Q 2244 2841 1947 2841 
Q 1628 2841 1473 2761 
Q 1319 2681 1319 2516 
Q 1319 2381 1436 2309 
Q 1553 2238 1856 2203 
L 2053 2175 
Q 2913 2066 3209 1816 
Q 3506 1566 3506 1031 
Q 3506 472 3093 190 
Q 2681 -91 1863 -91 
Q 1516 -91 1145 -36 
Q 775 19 384 128 
L 384 978 
Q 719 816 1070 734 
Q 1422 653 1784 653 
Q 2113 653 2278 743 
Q 2444 834 2444 1013 
Q 2444 1163 2330 1236 
Q 2216 1309 1875 1350 
L 1678 1375 
Q 931 1469 631 1722 
Q 331 1975 331 2491 
Q 331 3047 712 3315 
Q 1094 3584 1881 3584 
Q 2191 3584 2531 3537 
Q 2872 3491 3272 3391 
z
" transform="scale(0.015625)"/>
      <path id="DejaVuSans-Bold-28" d="M 2413 -844 
L 1484 -844 
Q 1006 -72 778 623 
Q 550 1319 550 2003 
Q 550 2688 779 3389 
Q 1009 4091 1484 4856 
L 2413 4856 
Q 2013 4116 1813 3408 
Q 1613 2700 1613 2009 
Q 1613 1319 1811 609 
Q 2009 -100 2413 -844 
z
" transform="scale(0.015625)"/>
      <path id="DejaVuSans-Bold-4c" d="M 588 4666 
L 1791 4666 
L 1791 909 
L 3903 909 
L 3903 0 
L 588 0 
L 588 4666 
z
" transform="scale(0.015625)"/>
      <path id="DejaVuSans-Bold-50" d="M 588 4666 
L 2584 4666 
Q 3475 4666 3951 4270 
Q 4428 3875 4428 3144 
Q 4428 2409 3951 2014 
Q 3475 1619 2584 1619 
L 1791 1619 
L 1791 0 
L 588 0 
L 588 4666 
z
M 1791 3794 
L 1791 2491 
L 2456 2491 
Q 2806 2491 2997 2661 
Q 3188 2831 3188 3144 
Q 3188 3456 2997 3625 
Q 2806 3794 2456 3794 
L 1791 3794 
z
" transform="scale(0.015625)"/>
      <path id="DejaVuSans-Bold-29" d="M 513 -844 
Q 913 -100 1113 609 
Q 1313 1319 1313 2009 
Q 1313 2700 1113 3408 
Q 913 4116 513 4856 
L 1441 4856 
Q 1916 4091 2145 3389 
Q 2375 2688 2375 2003 
Q 2375 1319 2147 623 
Q 1919 -72 1441 -844 
L 513 -844 
z
" transform="scale(0.015625)"/>
      <path id="DejaVuSans-Bold-64" d="M 2919 2988 
L 2919 4863 
L 4044 4863 
L 4044 0 
L 2919 0 
L 2919 506 
Q 2688 197 2409 53 
Q 2131 -91 1766 -91 
Q 1119 -91 703 423 
Q 288 938 288 1747 
Q 288 2556 703 3070 
Q 1119 3584 1766 3584 
Q 2128 3584 2408 3439 
Q 2688 3294 2919 2988 
z
M 2181 722 
Q 2541 722 2730 984 
Q 2919 1247 2919 1747 
Q 2919 2247 2730 2509 
Q 2541 2772 2181 2772 
Q 1825 2772 1636 2509 
Q 1447 2247 1447 1747 
Q 1447 1247 1636 984 
Q 1825 722 2181 722 
z
" transform="scale(0.015625)"/>
      <path id="DejaVuSans-Bold-72" d="M 3138 2547 
Q 2991 2616 2845 2648 
Q 2700 2681 2553 2681 
Q 2122 2681 1889 2404 
Q 1656 2128 1656 1613 
L 1656 0 
L 538 0 
L 538 3500 
L 1656 3500 
L 1656 2925 
Q 1872 3269 2151 3426 
Q 2431 3584 2822 3584 
Q 2878 3584 2943 3579 
Q 3009 3575 3134 3559 
L 3138 2547 
z
" transform="scale(0.015625)"/>
      <path id="DejaVuSans-Bold-76" d="M 97 3500 
L 1216 3500 
L 2088 1081 
L 2956 3500 
L 4078 3500 
L 2700 0 
L 1472 0 
L 97 3500 
z
" transform="scale(0.015625)"/>
      <path id="DejaVuSans-Bold-4f" d="M 2719 3878 
Q 2169 3878 1866 3472 
Q 1563 3066 1563 2328 
Q 1563 1594 1866 1187 
Q 2169 781 2719 781 
Q 3272 781 3575 1187 
Q 3878 1594 3878 2328 
Q 3878 3066 3575 3472 
Q 3272 3878 2719 3878 
z
M 2719 4750 
Q 3844 4750 4481 4106 
Q 5119 3463 5119 2328 
Q 5119 1197 4481 553 
Q 3844 -91 2719 -91 
Q 1597 -91 958 553 
Q 319 1197 319 2328 
Q 319 3463 958 4106 
Q 1597 4750 2719 4750 
z
" transform="scale(0.015625)"/>
      <path id="DejaVuSans-Bold-6f" d="M 2203 2784 
Q 1831 2784 1636 2517 
Q 1441 2250 1441 1747 
Q 1441 1244 1636 976 
Q 1831 709 2203 709 
Q 2569 709 2762 976 
Q 2956 1244 2956 1747 
Q 2956 2250 2762 2517 
Q 2569 2784 2203 2784 
z
M 2203 3584 
Q 3106 3584 3614 3096 
Q 4122 2609 4122 1747 
Q 4122 884 3614 396 
Q 3106 -91 2203 -91 
Q 1297 -91 786 396 
Q 275 884 275 1747 
Q 275 2609 786 3096 
Q 1297 3584 2203 3584 
z
" transform="scale(0.015625)"/>
     </defs>
     <use xlink:href="#DejaVuSans-Bold-41"/>
     <use xlink:href="#DejaVuSans-Bold-45" x="77.392578"/>
     <use xlink:href="#DejaVuSans-Bold-42" x="145.703125"/>
     <use xlink:href="#DejaVuSans-Bold-20" x="221.923828"/>
     <use xlink:href="#DejaVuSans-Bold-53" x="256.738281"/>
     <use xlink:href="#DejaVuSans-Bold-74" x="328.759766"/>
     <use xlink:href="#DejaVuSans-Bold-61" x="376.5625"/>
     <use xlink:href="#DejaVuSans-Bold-74" x="444.042969"/>
     <use xlink:href="#DejaVuSans-Bold-65" x="491.845703"/>
     <use xlink:href="#DejaVuSans-Bold-20" x="559.667969"/>
     <use xlink:href="#DejaVuSans-Bold-4d" x="594.482422"/>
     <use xlink:href="#DejaVuSans-Bold-61" x="693.994141"/>
     <use xlink:href="#DejaVuSans-Bold-63" x="761.474609"/>
     <use xlink:href="#DejaVuSans-Bold-68" x="820.751953"/>
     <use xlink:href="#DejaVuSans-Bold-69" x="891.943359"/>
     <use xlink:href="#DejaVuSans-Bold-6e" x="926.220703"/>
     <use xlink:href="#DejaVuSans-Bold-65" x="997.412109"/>
     <use xlink:href="#DejaVuSans-Bold-20" x="1065.234375"/>
     <use xlink:href="#DejaVuSans-Bold-20" x="1100.048828"/>
     <use xlink:href="#DejaVuSans-Bold-2014" x="1134.863281"/>
     <use xlink:href="#DejaVuSans-Bold-20" x="1234.863281"/>
     <use xlink:href="#DejaVuSans-Bold-20" x="1269.677734"/>
     <use xlink:href="#DejaVuSans-Bold-54" x="1304.492188"/>
     <use xlink:href="#DejaVuSans-Bold-54" x="1374.955078"/>
     <use xlink:href="#DejaVuSans-Bold-43" x="1443.167969"/>
     <use xlink:href="#DejaVuSans-Bold-2c" x="1516.556641"/>
     <use xlink:href="#DejaVuSans-Bold-20" x="1554.544922"/>
     <use xlink:href="#DejaVuSans-Bold-44" x="1589.359375"/>
     <use xlink:href="#DejaVuSans-Bold-69" x="1672.367188"/>
     <use xlink:href="#DejaVuSans-Bold-73" x="1706.644531"/>
     <use xlink:href="#DejaVuSans-Bold-74" x="1766.166016"/>
     <use xlink:href="#DejaVuSans-Bold-61" x="1813.96875"/>
     <use xlink:href="#DejaVuSans-Bold-6e" x="1881.449219"/>
     <use xlink:href="#DejaVuSans-Bold-63" x="1952.640625"/>
     <use xlink:href="#DejaVuSans-Bold-65" x="2011.917969"/>
     <use xlink:href="#DejaVuSans-Bold-20" x="2079.740234"/>
     <use xlink:href="#DejaVuSans-Bold-28" x="2114.554688"/>
     <use xlink:href="#DejaVuSans-Bold-4c" x="2160.257812"/>
     <use xlink:href="#DejaVuSans-Bold-50" x="2223.978516"/>
     <use xlink:href="#DejaVuSans-Bold-42" x="2297.269531"/>
     <use xlink:href="#DejaVuSans-Bold-29" x="2373.490234"/>
     <use xlink:href="#DejaVuSans-Bold-20" x="2419.193359"/>
     <use xlink:href="#DejaVuSans-Bold-61" x="2454.007812"/>
     <use xlink:href="#DejaVuSans-Bold-6e" x="2521.488281"/>
     <use xlink:href="#DejaVuSans-Bold-64" x="2592.679688"/>
     <use xlink:href="#DejaVuSans-Bold-20" x="2664.261719"/>
     <use xlink:href="#DejaVuSans-Bold-44" x="2699.076172"/>
     <use xlink:href="#DejaVuSans-Bold-72" x="2782.083984"/>
     <use xlink:href="#DejaVuSans-Bold-69" x="2831.400391"/>
     <use xlink:href="#DejaVuSans-Bold-76" x="2865.677734"/>
     <use xlink:href="#DejaVuSans-Bold-65" x="2930.863281"/>
     <use xlink:href="#DejaVuSans-Bold-72" x="2998.685547"/>
     <use xlink:href="#DejaVuSans-Bold-20" x="3048.001953"/>
     <use xlink:href="#DejaVuSans-Bold-4f" x="3082.816406"/>
     <use xlink:href="#DejaVuSans-Bold-76" x="3167.826172"/>
     <use xlink:href="#DejaVuSans-Bold-65" x="3233.011719"/>
     <use xlink:href="#DejaVuSans-Bold-72" x="3300.833984"/>
     <use xlink:href="#DejaVuSans-Bold-72" x="3350.150391"/>
     <use xlink:href="#DejaVuSans-Bold-69" x="3399.466797"/>
     <use xlink:href="#DejaVuSans-Bold-64" x="3433.744141"/>
     <use xlink:href="#DejaVuSans-Bold-65" x="3505.326172"/>
     <use xlink:href="#DejaVuSans-Bold-20" x="3573.148438"/>
     <use xlink:href="#DejaVuSans-Bold-54" x="3607.962891"/>
     <use xlink:href="#DejaVuSans-Bold-72" x="3665.175781"/>
     <use xlink:href="#DejaVuSans-Bold-61" x="3714.492188"/>
     <use xlink:href="#DejaVuSans-Bold-6e" x="3781.972656"/>
     <use xlink:href="#DejaVuSans-Bold-73" x="3853.164062"/>
     <use xlink:href="#DejaVuSans-Bold-69" x="3912.685547"/>
     <use xlink:href="#DejaVuSans-Bold-74" x="3946.962891"/>
     <use xlink:href="#DejaVuSans-Bold-69" x="3994.765625"/>
     <use xlink:href="#DejaVuSans-Bold-6f" x="4029.042969"/>
     <use xlink:href="#DejaVuSans-Bold-6e" x="4097.744141"/>
     <use xlink:href="#DejaVuSans-Bold-73" x="4168.935547"/>
    </g>
   </g>
   <g id="line2d_1">
    <path d="M 498.24 232.193813 
L 498.24 295.949813 
" clip-path="url(#p046ed7dd74)" style="fill: none; stroke-dasharray: 8.5,5.1; stroke-dashoffset: 0; stroke: #2e7d32; stroke-width: 1.7"/>
   </g>
   <g id="line2d_2">
    <path d="M 676.8 232.193813 
L 676.8 295.949813 
" clip-path="url(#p046ed7dd74)" style="fill: none; stroke-dasharray: 8.5,5.1; stroke-dashoffset: 0; stroke: #2e7d32; stroke-width: 1.7"/>
   </g>
   <g id="line2d_3">
    <path d="M 855.36 232.193813 
L 855.36 295.949813 
" clip-path="url(#p046ed7dd74)" style="fill: none; stroke-dasharray: 8.5,5.1; stroke-dashoffset: 0; stroke: #2e7d32; stroke-width: 1.7"/>
   </g>
   <g id="line2d_4">
    <path d="M 1033.92 232.193813 
L 1033.92 295.949813 
" clip-path="url(#p046ed7dd74)" style="fill: none; stroke-dasharray: 8.5,5.1; stroke-dashoffset: 0; stroke: #2e7d32; stroke-width: 1.7"/>
   </g>
   <g id="line2d_5">
    <path d="M 498.24 295.949813 
L 1033.92 295.949813 
" clip-path="url(#p046ed7dd74)" style="fill: none; stroke-dasharray: 8.5,5.1; stroke-dashoffset: 0; stroke: #2e7d32; stroke-width: 1.7"/>
   </g>
   <g id="patch_2">
    <path d="M 174.6 405.721013 
Q 202.5 405.721013 228.163932 405.721013 
" style="fill: none; stroke: #1565c0; stroke-width: 2; stroke-linecap: round"/>
    <path d="M 219.363932 401.321013 
L 228.163932 405.721013 
L 219.363932 410.121013 
" style="fill: none; stroke: #1565c0; stroke-width: 2; stroke-linecap: round"/>
   </g>
   <g id="patch_3">
    <path d="M 230.4 430.114613 
Q 202.5 430.114613 176.836068 430.114613 
" style="fill: none; stroke: #546e7a; stroke-width: 2; stroke-linecap: round"/>
    <path d="M 185.636068 434.514613 
L 176.836068 430.114613 
L 185.636068 425.714613 
" style="fill: none; stroke: #546e7a; stroke-width: 2; stroke-linecap: round"/>
   </g>
   <g id="patch_4">
    <path d="M 263.88 453.953813 
Q 169.02 586.757812 75.264735 455.500441 
" style="fill: none; stroke: #546e7a; stroke-width: 1.7; stroke-linecap: round"/>
    <path d="M 76.799204 465.218744 
L 75.264735 455.500441 
L 83.960058 460.103848 
" style="fill: none; stroke: #546e7a; stroke-width: 1.7; stroke-linecap: round"/>
   </g>
   <g id="patch_5">
    <path d="M 314.1 381.881813 
Q 372.69 297.335813 430.006353 214.627698 
" style="fill: none; stroke: #212121; stroke-width: 2; stroke-linecap: round"/>
    <path d="M 421.377462 219.354455 
L 430.006353 214.627698 
L 428.610424 224.366866 
" style="fill: none; stroke: #212121; stroke-width: 2; stroke-linecap: round"/>
   </g>
   <g id="patch_6">
    <path d="M 431.28 212.789813 
Q 296.5986 244.604813 313.845492 379.885509 
" style="fill: none; stroke: #607d8b; stroke-width: 1.8; stroke-linecap: round"/>
    <path d="M 317.097263 370.599715 
L 313.845492 379.885509 
L 308.367919 371.712616 
" style="fill: none; stroke: #607d8b; stroke-width: 1.8; stroke-linecap: round"/>
   </g>
   <g id="patch_7">
    <path d="M 565.2 196.157813 
Q 587.52 196.157813 607.603932 196.157813 
" style="fill: none; stroke: #212121; stroke-width: 2; stroke-linecap: round"/>
    <path d="M 598.803932 191.757813 
L 607.603932 196.157813 
L 598.803932 200.557813 
" style="fill: none; stroke: #212121; stroke-width: 2; stroke-linecap: round"/>
   </g>
   <g id="patch_8">
    <path d="M 743.76 196.157813 
Q 766.08 196.157813 786.163932 196.157813 
" style="fill: none; stroke: #212121; stroke-width: 2; stroke-linecap: round"/>
    <path d="M 777.363932 191.757813 
L 786.163932 196.157813 
L 777.363932 200.557813 
" style="fill: none; stroke: #212121; stroke-width: 2; stroke-linecap: round"/>
   </g>
   <g id="patch_9">
    <path d="M 922.32 196.157813 
Q 944.64 196.157813 964.723932 196.157813 
" style="fill: none; stroke: #212121; stroke-width: 2; stroke-linecap: round"/>
    <path d="M 955.923932 191.757813 
L 964.723932 196.157813 
L 955.923932 200.557813 
" style="fill: none; stroke: #212121; stroke-width: 2; stroke-linecap: round"/>
   </g>
   <g id="patch_10">
    <path d="M 1100.88 210.017813 
Q 1128.78 304.265813 1155.981818 396.155308 
" style="fill: none; stroke: #311b92; stroke-width: 2.2; stroke-linecap: round"/>
    <path d="M 1157.702946 386.468321 
L 1155.981818 396.155308 
L 1149.264905 388.966214 
" style="fill: none; stroke: #311b92; stroke-width: 2.2; stroke-linecap: round"/>
   </g>
   <g id="patch_11">
    <path d="M 1165.05 453.953813 
Q 760.5 211.223813 358.059154 452.68832 
" style="fill: none; stroke: #1565c0; stroke-width: 2.2; stroke-linecap: round"/>
    <path d="M 367.868873 451.933726 
L 358.059154 452.68832 
L 363.34131 444.387789 
" style="fill: none; stroke: #1565c0; stroke-width: 2.2; stroke-linecap: round"/>
   </g>
   <g id="patch_12">
    <path d="M 1187.37 459.497813 
Q 760.5 66.777412 335.111033 458.135263 
" style="fill: none; stroke-dasharray: 9,5.4; stroke-dashoffset: 0; stroke: #558b2f; stroke-width: 1.8; stroke-linecap: round"/>
    <path d="M 344.566274 455.415261 
L 335.111033 458.135263 
L 338.608177 448.939069 
" style="fill: none; stroke-dasharray: 9,5.4; stroke-dashoffset: 0; stroke: #558b2f; stroke-width: 1.8; stroke-linecap: round"/>
   </g>
   <g id="patch_13">
    <path d="M 498.24 295.949813 
Q 394.91136 309.921413 364.910434 407.677913 
" style="fill: none; stroke-dasharray: 9,5.4; stroke-dashoffset: 0; stroke: #2e7d32; stroke-width: 1.8; stroke-linecap: round"/>
    <path d="M 371.081518 401.203524 
L 364.910434 407.677913 
L 363.433573 398.856412 
" style="fill: none; stroke-dasharray: 9,5.4; stroke-dashoffset: 0; stroke: #2e7d32; stroke-width: 1.8; stroke-linecap: round"/>
   </g>
   <g id="legend_1">
    <g id="patch_14">
     <path d="M 13.15 635.427813 
L 389.082422 635.427813 
Q 390.782422 635.427813 390.782422 633.727813 
L 390.782422 597.148594 
Q 390.782422 595.448594 389.082422 595.448594 
L 13.15 595.448594 
Q 11.45 595.448594 11.45 597.148594 
L 11.45 633.727813 
Q 11.45 635.427813 13.15 635.427813 
z
" style="fill: #ffffff; opacity: 0.97; stroke: #b0bec5; stroke-width: 0.9; stroke-linejoin: miter"/>
    </g>
    <g id="patch_15">
     <path d="M 14.85 605.307266 
L 31.85 605.307266 
L 31.85 599.357266 
L 14.85 599.357266 
z
" style="fill: #212121; stroke: #212121; stroke-linejoin: miter"/>
    </g>
    <g id="text_2">
     <!-- TTC-based transition -->
     <g transform="translate(38.65 605.307266)scale(0.085 -0.085)">
      <defs>
       <path id="DejaVuSans-54" d="M -19 4666 
L 3928 4666 
L 3928 4134 
L 2272 4134 
L 2272 0 
L 1638 0 
L 1638 4134 
L -19 4134 
L -19 4666 
z
" transform="scale(0.015625)"/>
       <path id="DejaVuSans-43" d="M 4122 4306 
L 4122 3641 
Q 3803 3938 3442 4084 
Q 3081 4231 2675 4231 
Q 1875 4231 1450 3742 
Q 1025 3253 1025 2328 
Q 1025 1406 1450 917 
Q 1875 428 2675 428 
Q 3081 428 3442 575 
Q 3803 722 4122 1019 
L 4122 359 
Q 3791 134 3420 21 
Q 3050 -91 2638 -91 
Q 1578 -91 968 557 
Q 359 1206 359 2328 
Q 359 3453 968 4101 
Q 1578 4750 2638 4750 
Q 3056 4750 3426 4639 
Q 3797 4528 4122 4306 
z
" transform="scale(0.015625)"/>
       <path id="DejaVuSans-2d" d="M 313 2009 
L 1997 2009 
L 1997 1497 
L 313 1497 
L 313 2009 
z
" transform="scale(0.015625)"/>
       <path id="DejaVuSans-62" d="M 3116 1747 
Q 3116 2381 2855 2742 
Q 2594 3103 2138 3103 
Q 1681 3103 1420 2742 
Q 1159 2381 1159 1747 
Q 1159 1113 1420 752 
Q 1681 391 2138 391 
Q 2594 391 2855 752 
Q 3116 1113 3116 1747 
z
M 1159 2969 
Q 1341 3281 1617 3432 
Q 1894 3584 2278 3584 
Q 2916 3584 3314 3078 
Q 3713 2572 3713 1747 
Q 3713 922 3314 415 
Q 2916 -91 2278 -91 
Q 1894 -91 1617 61 
Q 1341 213 1159 525 
L 1159 0 
L 581 0 
L 581 4863 
L 1159 4863 
L 1159 2969 
z
" transform="scale(0.015625)"/>
       <path id="DejaVuSans-61" d="M 2194 1759 
Q 1497 1759 1228 1600 
Q 959 1441 959 1056 
Q 959 750 1161 570 
Q 1363 391 1709 391 
Q 2188 391 2477 730 
Q 2766 1069 2766 1631 
L 2766 1759 
L 2194 1759 
z
M 3341 1997 
L 3341 0 
L 2766 0 
L 2766 531 
Q 2569 213 2275 61 
Q 1981 -91 1556 -91 
Q 1019 -91 701 211 
Q 384 513 384 1019 
Q 384 1609 779 1909 
Q 1175 2209 1959 2209 
L 2766 2209 
L 2766 2266 
Q 2766 2663 2505 2880 
Q 2244 3097 1772 3097 
Q 1472 3097 1187 3025 
Q 903 2953 641 2809 
L 641 3341 
Q 956 3463 1253 3523 
Q 1550 3584 1831 3584 
Q 2591 3584 2966 3190 
Q 3341 2797 3341 1997 
z
" transform="scale(0.015625)"/>
       <path id="DejaVuSans-73" d="M 2834 3397 
L 2834 2853 
Q 2591 2978 2328 3040 
Q 2066 3103 1784 3103 
Q 1356 3103 1142 2972 
Q 928 2841 928 2578 
Q 928 2378 1081 2264 
Q 1234 2150 1697 2047 
L 1894 2003 
Q 2506 1872 2764 1633 
Q 3022 1394 3022 966 
Q 3022 478 2636 193 
Q 2250 -91 1575 -91 
Q 1294 -91 989 -36 
Q 684 19 347 128 
L 347 722 
Q 666 556 975 473 
Q 1284 391 1588 391 
Q 1994 391 2212 530 
Q 2431 669 2431 922 
Q 2431 1156 2273 1281 
Q 2116 1406 1581 1522 
L 1381 1569 
Q 847 1681 609 1914 
Q 372 2147 372 2553 
Q 372 3047 722 3315 
Q 1072 3584 1716 3584 
Q 2034 3584 2315 3537 
Q 2597 3491 2834 3397 
z
" transform="scale(0.015625)"/>
       <path id="DejaVuSans-65" d="M 3597 1894 
L 3597 1613 
L 953 1613 
Q 991 1019 1311 708 
Q 1631 397 2203 397 
Q 2534 397 2845 478 
Q 3156 559 3463 722 
L 3463 178 
Q 3153 47 2828 -22 
Q 2503 -91 2169 -91 
Q 1331 -91 842 396 
Q 353 884 353 1716 
Q 353 2575 817 3079 
Q 1281 3584 2069 3584 
Q 2775 3584 3186 3129 
Q 3597 2675 3597 1894 
z
M 3022 2063 
Q 3016 2534 2758 2815 
Q 2500 3097 2075 3097 
Q 1594 3097 1305 2825 
Q 1016 2553 972 2059 
L 3022 2063 
z
" transform="scale(0.015625)"/>
       <path id="DejaVuSans-64" d="M 2906 2969 
L 2906 4863 
L 3481 4863 
L 3481 0 
L 2906 0 
L 2906 525 
Q 2725 213 2448 61 
Q 2172 -91 1784 -91 
Q 1150 -91 751 415 
Q 353 922 353 1747 
Q 353 2572 751 3078 
Q 1150 3584 1784 3584 
Q 2172 3584 2448 3432 
Q 2725 3281 2906 2969 
z
M 947 1747 
Q 947 1113 1208 752 
Q 1469 391 1925 391 
Q 2381 391 2643 752 
Q 2906 1113 2906 1747 
Q 2906 2381 2643 2742 
Q 2381 3103 1925 3103 
Q 1469 3103 1208 2742 
Q 947 2381 947 1747 
z
" transform="scale(0.015625)"/>
       <path id="DejaVuSans-20" transform="scale(0.015625)"/>
       <path id="DejaVuSans-74" d="M 1172 4494 
L 1172 3500 
L 2356 3500 
L 2356 3053 
L 1172 3053 
L 1172 1153 
Q 1172 725 1289 603 
Q 1406 481 1766 481 
L 2356 481 
L 2356 0 
L 1766 0 
Q 1100 0 847 248 
Q 594 497 594 1153 
L 594 3053 
L 172 3053 
L 172 3500 
L 594 3500 
L 594 4494 
L 1172 4494 
z
" transform="scale(0.015625)"/>
       <path id="DejaVuSans-72" d="M 2631 2963 
Q 2534 3019 2420 3045 
Q 2306 3072 2169 3072 
Q 1681 3072 1420 2755 
Q 1159 2438 1159 1844 
L 1159 0 
L 581 0 
L 581 3500 
L 1159 3500 
L 1159 2956 
Q 1341 3275 1631 3429 
Q 1922 3584 2338 3584 
Q 2397 3584 2469 3576 
Q 2541 3569 2628 3553 
L 2631 2963 
z
" transform="scale(0.015625)"/>
       <path id="DejaVuSans-6e" d="M 3513 2113 
L 3513 0 
L 2938 0 
L 2938 2094 
Q 2938 2591 2744 2837 
Q 2550 3084 2163 3084 
Q 1697 3084 1428 2787 
Q 1159 2491 1159 1978 
L 1159 0 
L 581 0 
L 581 3500 
L 1159 3500 
L 1159 2956 
Q 1366 3272 1645 3428 
Q 1925 3584 2291 3584 
Q 2894 3584 3203 3211 
Q 3513 2838 3513 2113 
z
" transform="scale(0.015625)"/>
       <path id="DejaVuSans-69" d="M 603 3500 
L 1178 3500 
L 1178 0 
L 603 0 
L 603 3500 
z
M 603 4863 
L 1178 4863 
L 1178 4134 
L 603 4134 
L 603 4863 
z
" transform="scale(0.015625)"/>
       <path id="DejaVuSans-6f" d="M 1959 3097 
Q 1497 3097 1228 2736 
Q 959 2375 959 1747 
Q 959 1119 1226 758 
Q 1494 397 1959 397 
Q 2419 397 2687 759 
Q 2956 1122 2956 1747 
Q 2956 2369 2687 2733 
Q 2419 3097 1959 3097 
z
M 1959 3584 
Q 2709 3584 3137 3096 
Q 3566 2609 3566 1747 
Q 3566 888 3137 398 
Q 2709 -91 1959 -91 
Q 1206 -91 779 398 
Q 353 888 353 1747 
Q 353 2609 779 3096 
Q 1206 3584 1959 3584 
z
" transform="scale(0.015625)"/>
      </defs>
      <use xlink:href="#DejaVuSans-54"/>
      <use xlink:href="#DejaVuSans-54" x="59.333984"/>
      <use xlink:href="#DejaVuSans-43" x="114.542969"/>
      <use xlink:href="#DejaVuSans-2d" x="184.367188"/>
      <use xlink:href="#DejaVuSans-62" x="220.451172"/>
      <use xlink:href="#DejaVuSans-61" x="283.927734"/>
      <use xlink:href="#DejaVuSans-73" x="345.207031"/>
      <use xlink:href="#DejaVuSans-65" x="397.306641"/>
      <use xlink:href="#DejaVuSans-64" x="458.830078"/>
      <use xlink:href="#DejaVuSans-20" x="522.306641"/>
      <use xlink:href="#DejaVuSans-74" x="554.09375"/>
      <use xlink:href="#DejaVuSans-72" x="593.302734"/>
      <use xlink:href="#DejaVuSans-61" x="634.416016"/>
      <use xlink:href="#DejaVuSans-6e" x="695.695312"/>
      <use xlink:href="#DejaVuSans-73" x="759.074219"/>
      <use xlink:href="#DejaVuSans-69" x="811.173828"/>
      <use xlink:href="#DejaVuSans-74" x="838.957031"/>
      <use xlink:href="#DejaVuSans-69" x="878.166016"/>
      <use xlink:href="#DejaVuSans-6f" x="905.949219"/>
      <use xlink:href="#DejaVuSans-6e" x="967.130859"/>
     </g>
    </g>
    <g id="patch_16">
     <path d="M 14.85 617.783672 
L 31.85 617.783672 
L 31.85 611.833672 
L 14.85 611.833672 
z
" style="fill: #0277bd; stroke: #0277bd; stroke-linejoin: miter"/>
    </g>
    <g id="text_3">
     <!-- Distance floor (LPB) -->
     <g transform="translate(38.65 617.783672)scale(0.085 -0.085)">
      <defs>
       <path id="DejaVuSans-44" d="M 1259 4147 
L 1259 519 
L 2022 519 
Q 2988 519 3436 956 
Q 3884 1394 3884 2338 
Q 3884 3275 3436 3711 
Q 2988 4147 2022 4147 
L 1259 4147 
z
M 628 4666 
L 1925 4666 
Q 3281 4666 3915 4102 
Q 4550 3538 4550 2338 
Q 4550 1131 3912 565 
Q 3275 0 1925 0 
L 628 0 
L 628 4666 
z
" transform="scale(0.015625)"/>
       <path id="DejaVuSans-63" d="M 3122 3366 
L 3122 2828 
Q 2878 2963 2633 3030 
Q 2388 3097 2138 3097 
Q 1578 3097 1268 2742 
Q 959 2388 959 1747 
Q 959 1106 1268 751 
Q 1578 397 2138 397 
Q 2388 397 2633 464 
Q 2878 531 3122 666 
L 3122 134 
Q 2881 22 2623 -34 
Q 2366 -91 2075 -91 
Q 1284 -91 818 406 
Q 353 903 353 1747 
Q 353 2603 823 3093 
Q 1294 3584 2113 3584 
Q 2378 3584 2631 3529 
Q 2884 3475 3122 3366 
z
" transform="scale(0.015625)"/>
       <path id="DejaVuSans-66" d="M 2375 4863 
L 2375 4384 
L 1825 4384 
Q 1516 4384 1395 4259 
Q 1275 4134 1275 3809 
L 1275 3500 
L 2222 3500 
L 2222 3053 
L 1275 3053 
L 1275 0 
L 697 0 
L 697 3053 
L 147 3053 
L 147 3500 
L 697 3500 
L 697 3744 
Q 697 4328 969 4595 
Q 1241 4863 1831 4863 
L 2375 4863 
z
" transform="scale(0.015625)"/>
       <path id="DejaVuSans-6c" d="M 603 4863 
L 1178 4863 
L 1178 0 
L 603 0 
L 603 4863 
z
" transform="scale(0.015625)"/>
       <path id="DejaVuSans-28" d="M 1984 4856 
Q 1566 4138 1362 3434 
Q 1159 2731 1159 2009 
Q 1159 1288 1364 580 
Q 1569 -128 1984 -844 
L 1484 -844 
Q 1016 -109 783 600 
Q 550 1309 550 2009 
Q 550 2706 781 3412 
Q 1013 4119 1484 4856 
L 1984 4856 
z
" transform="scale(0.015625)"/>
       <path id="DejaVuSans-4c" d="M 628 4666 
L 1259 4666 
L 1259 531 
L 3531 531 
L 3531 0 
L 628 0 
L 628 4666 
z
" transform="scale(0.015625)"/>
       <path id="DejaVuSans-50" d="M 1259 4147 
L 1259 2394 
L 2053 2394 
Q 2494 2394 2734 2622 
Q 2975 2850 2975 3272 
Q 2975 3691 2734 3919 
Q 2494 4147 2053 4147 
L 1259 4147 
z
M 628 4666 
L 2053 4666 
Q 2838 4666 3239 4311 
Q 3641 3956 3641 3272 
Q 3641 2581 3239 2228 
Q 2838 1875 2053 1875 
L 1259 1875 
L 1259 0 
L 628 0 
L 628 4666 
z
" transform="scale(0.015625)"/>
       <path id="DejaVuSans-42" d="M 1259 2228 
L 1259 519 
L 2272 519 
Q 2781 519 3026 730 
Q 3272 941 3272 1375 
Q 3272 1813 3026 2020 
Q 2781 2228 2272 2228 
L 1259 2228 
z
M 1259 4147 
L 1259 2741 
L 2194 2741 
Q 2656 2741 2882 2914 
Q 3109 3088 3109 3444 
Q 3109 3797 2882 3972 
Q 2656 4147 2194 4147 
L 1259 4147 
z
M 628 4666 
L 2241 4666 
Q 2963 4666 3353 4366 
Q 3744 4066 3744 3513 
Q 3744 3084 3544 2831 
Q 3344 2578 2956 2516 
Q 3422 2416 3680 2098 
Q 3938 1781 3938 1306 
Q 3938 681 3513 340 
Q 3088 0 2303 0 
L 628 0 
L 628 4666 
z
" transform="scale(0.015625)"/>
       <path id="DejaVuSans-29" d="M 513 4856 
L 1013 4856 
Q 1481 4119 1714 3412 
Q 1947 2706 1947 2009 
Q 1947 1309 1714 600 
Q 1481 -109 1013 -844 
L 513 -844 
Q 928 -128 1133 580 
Q 1338 1288 1338 2009 
Q 1338 2731 1133 3434 
Q 928 4138 513 4856 
z
" transform="scale(0.015625)"/>
      </defs>
      <use xlink:href="#DejaVuSans-44"/>
      <use xlink:href="#DejaVuSans-69" x="77.001953"/>
      <use xlink:href="#DejaVuSans-73" x="104.785156"/>
      <use xlink:href="#DejaVuSans-74" x="156.884766"/>
      <use xlink:href="#DejaVuSans-61" x="196.09375"/>
      <use xlink:href="#DejaVuSans-6e" x="257.373047"/>
      <use xlink:href="#DejaVuSans-63" x="320.751953"/>
      <use xlink:href="#DejaVuSans-65" x="375.732422"/>
      <use xlink:href="#DejaVuSans-20" x="437.255859"/>
      <use xlink:href="#DejaVuSans-66" x="469.042969"/>
      <use xlink:href="#DejaVuSans-6c" x="504.248047"/>
      <use xlink:href="#DejaVuSans-6f" x="532.03125"/>
      <use xlink:href="#DejaVuSans-6f" x="593.212891"/>
      <use xlink:href="#DejaVuSans-72" x="654.394531"/>
      <use xlink:href="#DejaVuSans-20" x="695.507812"/>
      <use xlink:href="#DejaVuSans-28" x="727.294922"/>
      <use xlink:href="#DejaVuSans-4c" x="766.308594"/>
      <use xlink:href="#DejaVuSans-50" x="822.021484"/>
      <use xlink:href="#DejaVuSans-42" x="882.324219"/>
      <use xlink:href="#DejaVuSans-29" x="950.927734"/>
     </g>
    </g>
    <g id="patch_17">
     <path d="M 14.85 630.260078 
L 31.85 630.260078 
L 31.85 624.310078 
L 14.85 624.310078 
z
" style="fill: #2e7d32; stroke: #2e7d32; stroke-linejoin: miter"/>
    </g>
    <g id="text_4">
     <!-- Override: brake pedal or steering &gt; 5° -->
     <g transform="translate(38.65 630.260078)scale(0.085 -0.085)">
      <defs>
       <path id="DejaVuSans-4f" d="M 2522 4238 
Q 1834 4238 1429 3725 
Q 1025 3213 1025 2328 
Q 1025 1447 1429 934 
Q 1834 422 2522 422 
Q 3209 422 3611 934 
Q 4013 1447 4013 2328 
Q 4013 3213 3611 3725 
Q 3209 4238 2522 4238 
z
M 2522 4750 
Q 3503 4750 4090 4092 
Q 4678 3434 4678 2328 
Q 4678 1225 4090 567 
Q 3503 -91 2522 -91 
Q 1538 -91 948 565 
Q 359 1222 359 2328 
Q 359 3434 948 4092 
Q 1538 4750 2522 4750 
z
" transform="scale(0.015625)"/>
       <path id="DejaVuSans-76" d="M 191 3500 
L 800 3500 
L 1894 563 
L 2988 3500 
L 3597 3500 
L 2284 0 
L 1503 0 
L 191 3500 
z
" transform="scale(0.015625)"/>
       <path id="DejaVuSans-3a" d="M 750 794 
L 1409 794 
L 1409 0 
L 750 0 
L 750 794 
z
M 750 3309 
L 1409 3309 
L 1409 2516 
L 750 2516 
L 750 3309 
z
" transform="scale(0.015625)"/>
       <path id="DejaVuSans-6b" d="M 581 4863 
L 1159 4863 
L 1159 1991 
L 2875 3500 
L 3609 3500 
L 1753 1863 
L 3688 0 
L 2938 0 
L 1159 1709 
L 1159 0 
L 581 0 
L 581 4863 
z
" transform="scale(0.015625)"/>
       <path id="DejaVuSans-70" d="M 1159 525 
L 1159 -1331 
L 581 -1331 
L 581 3500 
L 1159 3500 
L 1159 2969 
Q 1341 3281 1617 3432 
Q 1894 3584 2278 3584 
Q 2916 3584 3314 3078 
Q 3713 2572 3713 1747 
Q 3713 922 3314 415 
Q 2916 -91 2278 -91 
Q 1894 -91 1617 61 
Q 1341 213 1159 525 
z
M 3116 1747 
Q 3116 2381 2855 2742 
Q 2594 3103 2138 3103 
Q 1681 3103 1420 2742 
Q 1159 2381 1159 1747 
Q 1159 1113 1420 752 
Q 1681 391 2138 391 
Q 2594 391 2855 752 
Q 3116 1113 3116 1747 
z
" transform="scale(0.015625)"/>
       <path id="DejaVuSans-67" d="M 2906 1791 
Q 2906 2416 2648 2759 
Q 2391 3103 1925 3103 
Q 1463 3103 1205 2759 
Q 947 2416 947 1791 
Q 947 1169 1205 825 
Q 1463 481 1925 481 
Q 2391 481 2648 825 
Q 2906 1169 2906 1791 
z
M 3481 434 
Q 3481 -459 3084 -895 
Q 2688 -1331 1869 -1331 
Q 1566 -1331 1297 -1286 
Q 1028 -1241 775 -1147 
L 775 -588 
Q 1028 -725 1275 -790 
Q 1522 -856 1778 -856 
Q 2344 -856 2625 -561 
Q 2906 -266 2906 331 
L 2906 616 
Q 2728 306 2450 153 
Q 2172 0 1784 0 
Q 1141 0 747 490 
Q 353 981 353 1791 
Q 353 2603 747 3093 
Q 1141 3584 1784 3584 
Q 2172 3584 2450 3431 
Q 2728 3278 2906 2969 
L 2906 3500 
L 3481 3500 
L 3481 434 
z
" transform="scale(0.015625)"/>
       <path id="DejaVuSans-3e" d="M 678 3150 
L 678 3719 
L 4684 2266 
L 4684 1747 
L 678 294 
L 678 863 
L 3897 2003 
L 678 3150 
z
" transform="scale(0.015625)"/>
       <path id="DejaVuSans-35" d="M 691 4666 
L 3169 4666 
L 3169 4134 
L 1269 4134 
L 1269 2991 
Q 1406 3038 1543 3061 
Q 1681 3084 1819 3084 
Q 2600 3084 3056 2656 
Q 3513 2228 3513 1497 
Q 3513 744 3044 326 
Q 2575 -91 1722 -91 
Q 1428 -91 1123 -41 
Q 819 9 494 109 
L 494 744 
Q 775 591 1075 516 
Q 1375 441 1709 441 
Q 2250 441 2565 725 
Q 2881 1009 2881 1497 
Q 2881 1984 2565 2268 
Q 2250 2553 1709 2553 
Q 1456 2553 1204 2497 
Q 953 2441 691 2322 
L 691 4666 
z
" transform="scale(0.015625)"/>
       <path id="DejaVuSans-b0" d="M 1600 4347 
Q 1350 4347 1178 4173 
Q 1006 4000 1006 3750 
Q 1006 3503 1178 3333 
Q 1350 3163 1600 3163 
Q 1850 3163 2022 3333 
Q 2194 3503 2194 3750 
Q 2194 3997 2020 4172 
Q 1847 4347 1600 4347 
z
M 1600 4750 
Q 1800 4750 1984 4673 
Q 2169 4597 2303 4453 
Q 2447 4313 2519 4134 
Q 2591 3956 2591 3750 
Q 2591 3338 2302 3052 
Q 2013 2766 1594 2766 
Q 1172 2766 890 3047 
Q 609 3328 609 3750 
Q 609 4169 896 4459 
Q 1184 4750 1600 4750 
z
" transform="scale(0.015625)"/>
      </defs>
      <use xlink:href="#DejaVuSans-4f"/>
      <use xlink:href="#DejaVuSans-76" x="78.710938"/>
      <use xlink:href="#DejaVuSans-65" x="137.890625"/>
      <use xlink:href="#DejaVuSans-72" x="199.414062"/>
      <use xlink:href="#DejaVuSans-72" x="238.777344"/>
      <use xlink:href="#DejaVuSans-69" x="279.890625"/>
      <use xlink:href="#DejaVuSans-64" x="307.673828"/>
      <use xlink:href="#DejaVuSans-65" x="371.150391"/>
      <use xlink:href="#DejaVuSans-3a" x="432.673828"/>
      <use xlink:href="#DejaVuSans-20" x="466.365234"/>
      <use xlink:href="#DejaVuSans-62" x="498.152344"/>
      <use xlink:href="#DejaVuSans-72" x="561.628906"/>
      <use xlink:href="#DejaVuSans-61" x="602.742188"/>
      <use xlink:href="#DejaVuSans-6b" x="664.021484"/>
      <use xlink:href="#DejaVuSans-65" x="718.306641"/>
      <use xlink:href="#DejaVuSans-20" x="779.830078"/>
      <use xlink:href="#DejaVuSans-70" x="811.617188"/>
      <use xlink:href="#DejaVuSans-65" x="875.09375"/>
      <use xlink:href="#DejaVuSans-64" x="936.617188"/>
      <use xlink:href="#DejaVuSans-61" x="1000.09375"/>
      <use xlink:href="#DejaVuSans-6c" x="1061.373047"/>
      <use xlink:href="#DejaVuSans-20" x="1089.15625"/>
      <use xlink:href="#DejaVuSans-6f" x="1120.943359"/>
      <use xlink:href="#DejaVuSans-72" x="1182.125"/>
      <use xlink:href="#DejaVuSans-20" x="1223.238281"/>
      <use xlink:href="#DejaVuSans-73" x="1255.025391"/>
      <use xlink:href="#DejaVuSans-74" x="1307.125"/>
      <use xlink:href="#DejaVuSans-65" x="1346.333984"/>
      <use xlink:href="#DejaVuSans-65" x="1407.857422"/>
      <use xlink:href="#DejaVuSans-72" x="1469.380859"/>
      <use xlink:href="#DejaVuSans-69" x="1510.494141"/>
      <use xlink:href="#DejaVuSans-6e" x="1538.277344"/>
      <use xlink:href="#DejaVuSans-67" x="1601.65625"/>
      <use xlink:href="#DejaVuSans-20" x="1665.132812"/>
      <use xlink:href="#DejaVuSans-3e" x="1696.919922"/>
      <use xlink:href="#DejaVuSans-20" x="1780.708984"/>
      <use xlink:href="#DejaVuSans-35" x="1812.496094"/>
      <use xlink:href="#DejaVuSans-b0" x="1876.119141"/>
     </g>
    </g>
    <g id="patch_18">
     <path d="M 219.373281 605.307266 
L 236.373281 605.307266 
L 236.373281 599.357266 
L 219.373281 599.357266 
z
" style="fill: #558b2f; stroke: #558b2f; stroke-linejoin: miter"/>
    </g>
    <g id="text_5">
     <!-- POST-BRAKE override: accelerator -->
     <g transform="translate(243.173281 605.307266)scale(0.085 -0.085)">
      <defs>
       <path id="DejaVuSans-53" d="M 3425 4513 
L 3425 3897 
Q 3066 4069 2747 4153 
Q 2428 4238 2131 4238 
Q 1616 4238 1336 4038 
Q 1056 3838 1056 3469 
Q 1056 3159 1242 3001 
Q 1428 2844 1947 2747 
L 2328 2669 
Q 3034 2534 3370 2195 
Q 3706 1856 3706 1288 
Q 3706 609 3251 259 
Q 2797 -91 1919 -91 
Q 1588 -91 1214 -16 
Q 841 59 441 206 
L 441 856 
Q 825 641 1194 531 
Q 1563 422 1919 422 
Q 2459 422 2753 634 
Q 3047 847 3047 1241 
Q 3047 1584 2836 1778 
Q 2625 1972 2144 2069 
L 1759 2144 
Q 1053 2284 737 2584 
Q 422 2884 422 3419 
Q 422 4038 858 4394 
Q 1294 4750 2059 4750 
Q 2388 4750 2728 4690 
Q 3069 4631 3425 4513 
z
" transform="scale(0.015625)"/>
       <path id="DejaVuSans-52" d="M 2841 2188 
Q 3044 2119 3236 1894 
Q 3428 1669 3622 1275 
L 4263 0 
L 3584 0 
L 2988 1197 
Q 2756 1666 2539 1819 
Q 2322 1972 1947 1972 
L 1259 1972 
L 1259 0 
L 628 0 
L 628 4666 
L 2053 4666 
Q 2853 4666 3247 4331 
Q 3641 3997 3641 3322 
Q 3641 2881 3436 2590 
Q 3231 2300 2841 2188 
z
M 1259 4147 
L 1259 2491 
L 2053 2491 
Q 2509 2491 2742 2702 
Q 2975 2913 2975 3322 
Q 2975 3731 2742 3939 
Q 2509 4147 2053 4147 
L 1259 4147 
z
" transform="scale(0.015625)"/>
       <path id="DejaVuSans-41" d="M 2188 4044 
L 1331 1722 
L 3047 1722 
L 2188 4044 
z
M 1831 4666 
L 2547 4666 
L 4325 0 
L 3669 0 
L 3244 1197 
L 1141 1197 
L 716 0 
L 50 0 
L 1831 4666 
z
" transform="scale(0.015625)"/>
       <path id="DejaVuSans-4b" d="M 628 4666 
L 1259 4666 
L 1259 2694 
L 3353 4666 
L 4166 4666 
L 1850 2491 
L 4331 0 
L 3500 0 
L 1259 2247 
L 1259 0 
L 628 0 
L 628 4666 
z
" transform="scale(0.015625)"/>
       <path id="DejaVuSans-45" d="M 628 4666 
L 3578 4666 
L 3578 4134 
L 1259 4134 
L 1259 2753 
L 3481 2753 
L 3481 2222 
L 1259 2222 
L 1259 531 
L 3634 531 
L 3634 0 
L 628 0 
L 628 4666 
z
" transform="scale(0.015625)"/>
      </defs>
      <use xlink:href="#DejaVuSans-50"/>
      <use xlink:href="#DejaVuSans-4f" x="60.302734"/>
      <use xlink:href="#DejaVuSans-53" x="139.013672"/>
      <use xlink:href="#DejaVuSans-54" x="202.490234"/>
      <use xlink:href="#DejaVuSans-2d" x="254.449219"/>
      <use xlink:href="#DejaVuSans-42" x="286.908203"/>
      <use xlink:href="#DejaVuSans-52" x="355.511719"/>
      <use xlink:href="#DejaVuSans-41" x="420.994141"/>
      <use xlink:href="#DejaVuSans-4b" x="489.402344"/>
      <use xlink:href="#DejaVuSans-45" x="554.978516"/>
      <use xlink:href="#DejaVuSans-20" x="618.162109"/>
      <use xlink:href="#DejaVuSans-6f" x="649.949219"/>
      <use xlink:href="#DejaVuSans-76" x="711.130859"/>
      <use xlink:href="#DejaVuSans-65" x="770.310547"/>
      <use xlink:href="#DejaVuSans-72" x="831.833984"/>
      <use xlink:href="#DejaVuSans-72" x="871.197266"/>
      <use xlink:href="#DejaVuSans-69" x="912.310547"/>
      <use xlink:href="#DejaVuSans-64" x="940.09375"/>
      <use xlink:href="#DejaVuSans-65" x="1003.570312"/>
      <use xlink:href="#DejaVuSans-3a" x="1065.09375"/>
      <use xlink:href="#DejaVuSans-20" x="1098.785156"/>
      <use xlink:href="#DejaVuSans-61" x="1130.572266"/>
      <use xlink:href="#DejaVuSans-63" x="1191.851562"/>
      <use xlink:href="#DejaVuSans-63" x="1246.832031"/>
      <use xlink:href="#DejaVuSans-65" x="1301.8125"/>
      <use xlink:href="#DejaVuSans-6c" x="1363.335938"/>
      <use xlink:href="#DejaVuSans-65" x="1391.119141"/>
      <use xlink:href="#DejaVuSans-72" x="1452.642578"/>
      <use xlink:href="#DejaVuSans-61" x="1493.755859"/>
      <use xlink:href="#DejaVuSans-74" x="1555.035156"/>
      <use xlink:href="#DejaVuSans-6f" x="1594.244141"/>
      <use xlink:href="#DejaVuSans-72" x="1655.425781"/>
     </g>
    </g>
    <g id="patch_19">
     <path d="M 219.373281 617.783672 
L 236.373281 617.783672 
L 236.373281 611.833672 
L 219.373281 611.833672 
z
" style="fill: #607d8b; stroke: #607d8b; stroke-linejoin: miter"/>
    </g>
    <g id="text_6">
     <!-- De-escalation -->
     <g transform="translate(243.173281 617.783672)scale(0.085 -0.085)">
      <use xlink:href="#DejaVuSans-44"/>
      <use xlink:href="#DejaVuSans-65" x="77.001953"/>
      <use xlink:href="#DejaVuSans-2d" x="138.525391"/>
      <use xlink:href="#DejaVuSans-65" x="174.609375"/>
      <use xlink:href="#DejaVuSans-73" x="236.132812"/>
      <use xlink:href="#DejaVuSans-63" x="288.232422"/>
      <use xlink:href="#DejaVuSans-61" x="343.212891"/>
      <use xlink:href="#DejaVuSans-6c" x="404.492188"/>
      <use xlink:href="#DejaVuSans-61" x="432.275391"/>
      <use xlink:href="#DejaVuSans-74" x="493.554688"/>
      <use xlink:href="#DejaVuSans-69" x="532.763672"/>
      <use xlink:href="#DejaVuSans-6f" x="560.546875"/>
      <use xlink:href="#DejaVuSans-6e" x="621.728516"/>
     </g>
    </g>
    <g id="patch_20">
     <path d="M 219.373281 630.260078 
L 236.373281 630.260078 
L 236.373281 624.310078 
L 219.373281 624.310078 
z
" style="fill: #546e7a; stroke: #546e7a; stroke-linejoin: miter"/>
    </g>
    <g id="text_7">
     <!-- System disabled (InfoCenter) -->
     <g transform="translate(243.173281 630.260078)scale(0.085 -0.085)">
      <defs>
       <path id="DejaVuSans-79" d="M 2059 -325 
Q 1816 -950 1584 -1140 
Q 1353 -1331 966 -1331 
L 506 -1331 
L 506 -850 
L 844 -850 
Q 1081 -850 1212 -737 
Q 1344 -625 1503 -206 
L 1606 56 
L 191 3500 
L 800 3500 
L 1894 763 
L 2988 3500 
L 3597 3500 
L 2059 -325 
z
" transform="scale(0.015625)"/>
       <path id="DejaVuSans-6d" d="M 3328 2828 
Q 3544 3216 3844 3400 
Q 4144 3584 4550 3584 
Q 5097 3584 5394 3201 
Q 5691 2819 5691 2113 
L 5691 0 
L 5113 0 
L 5113 2094 
Q 5113 2597 4934 2840 
Q 4756 3084 4391 3084 
Q 3944 3084 3684 2787 
Q 3425 2491 3425 1978 
L 3425 0 
L 2847 0 
L 2847 2094 
Q 2847 2600 2669 2842 
Q 2491 3084 2119 3084 
Q 1678 3084 1418 2786 
Q 1159 2488 1159 1978 
L 1159 0 
L 581 0 
L 581 3500 
L 1159 3500 
L 1159 2956 
Q 1356 3278 1631 3431 
Q 1906 3584 2284 3584 
Q 2666 3584 2933 3390 
Q 3200 3197 3328 2828 
z
" transform="scale(0.015625)"/>
       <path id="DejaVuSans-49" d="M 628 4666 
L 1259 4666 
L 1259 0 
L 628 0 
L 628 4666 
z
" transform="scale(0.015625)"/>
      </defs>
      <use xlink:href="#DejaVuSans-53"/>
      <use xlink:href="#DejaVuSans-79" x="63.476562"/>
      <use xlink:href="#DejaVuSans-73" x="122.65625"/>
      <use xlink:href="#DejaVuSans-74" x="174.755859"/>
      <use xlink:href="#DejaVuSans-65" x="213.964844"/>
      <use xlink:href="#DejaVuSans-6d" x="275.488281"/>
      <use xlink:href="#DejaVuSans-20" x="372.900391"/>
      <use xlink:href="#DejaVuSans-64" x="404.6875"/>
      <use xlink:href="#DejaVuSans-69" x="468.164062"/>
      <use xlink:href="#DejaVuSans-73" x="495.947266"/>
      <use xlink:href="#DejaVuSans-61" x="548.046875"/>
      <use xlink:href="#DejaVuSans-62" x="609.326172"/>
      <use xlink:href="#DejaVuSans-6c" x="672.802734"/>
      <use xlink:href="#DejaVuSans-65" x="700.585938"/>
      <use xlink:href="#DejaVuSans-64" x="762.109375"/>
      <use xlink:href="#DejaVuSans-20" x="825.585938"/>
      <use xlink:href="#DejaVuSans-28" x="857.373047"/>
      <use xlink:href="#DejaVuSans-49" x="896.386719"/>
      <use xlink:href="#DejaVuSans-6e" x="925.878906"/>
      <use xlink:href="#DejaVuSans-66" x="989.257812"/>
      <use xlink:href="#DejaVuSans-6f" x="1024.462891"/>
      <use xlink:href="#DejaVuSans-43" x="1085.644531"/>
      <use xlink:href="#DejaVuSans-65" x="1155.46875"/>
      <use xlink:href="#DejaVuSans-6e" x="1216.992188"/>
      <use xlink:href="#DejaVuSans-74" x="1280.371094"/>
      <use xlink:href="#DejaVuSans-65" x="1319.580078"/>
      <use xlink:href="#DejaVuSans-72" x="1381.103516"/>
      <use xlink:href="#DejaVuSans-29" x="1422.216797"/>
     </g>
    </g>
   </g>
   <g id="patch_21">
    <path d="M 40.68 459.497813 
L 174.6 459.497813 
Q 180.18 459.497813 180.18 453.953813 
L 180.18 381.881813 
Q 180.18 376.337813 174.6 376.337813 
L 40.68 376.337813 
Q 35.1 376.337813 35.1 381.881813 
L 35.1 453.953813 
Q 35.1 459.497813 40.68 459.497813 
z
" clip-path="url(#p046ed7dd74)" style="fill: #546e7a; stroke: #ffffff; stroke-width: 2.5; stroke-linejoin: miter"/>
   </g>
   <g id="patch_22">
    <path d="M 230.4 459.497813 
L 364.32 459.497813 
Q 369.9 459.497813 369.9 453.953813 
L 369.9 381.881813 
Q 369.9 376.337813 364.32 376.337813 
L 230.4 376.337813 
Q 224.82 376.337813 224.82 381.881813 
L 224.82 453.953813 
Q 224.82 459.497813 230.4 459.497813 
z
" clip-path="url(#p046ed7dd74)" style="fill: #1565c0; stroke: #ffffff; stroke-width: 2.5; stroke-linejoin: miter"/>
   </g>
   <g id="patch_23">
    <path d="M 431.28 237.737813 
L 565.2 237.737813 
Q 570.78 237.737813 570.78 232.193813 
L 570.78 160.121813 
Q 570.78 154.577813 565.2 154.577813 
L 431.28 154.577813 
Q 425.7 154.577813 425.7 160.121813 
L 425.7 232.193813 
Q 425.7 237.737813 431.28 237.737813 
z
" clip-path="url(#p046ed7dd74)" style="fill: #e65100; stroke: #ffffff; stroke-width: 2.5; stroke-linejoin: miter"/>
   </g>
   <g id="patch_24">
    <path d="M 609.84 237.737813 
L 743.76 237.737813 
Q 749.34 237.737813 749.34 232.193813 
L 749.34 160.121813 
Q 749.34 154.577813 743.76 154.577813 
L 609.84 154.577813 
Q 604.26 154.577813 604.26 160.121813 
L 604.26 232.193813 
Q 604.26 237.737813 609.84 237.737813 
z
" clip-path="url(#p046ed7dd74)" style="fill: #c62828; stroke: #ffffff; stroke-width: 2.5; stroke-linejoin: miter"/>
   </g>
   <g id="patch_25">
    <path d="M 788.4 237.737813 
L 922.32 237.737813 
Q 927.9 237.737813 927.9 232.193813 
L 927.9 160.121813 
Q 927.9 154.577813 922.32 154.577813 
L 788.4 154.577813 
Q 782.82 154.577813 782.82 160.121813 
L 782.82 232.193813 
Q 782.82 237.737813 788.4 237.737813 
z
" clip-path="url(#p046ed7dd74)" style="fill: #ad1457; stroke: #ffffff; stroke-width: 2.5; stroke-linejoin: miter"/>
   </g>
   <g id="patch_26">
    <path d="M 966.96 237.737813 
L 1100.88 237.737813 
Q 1106.46 237.737813 1106.46 232.193813 
L 1106.46 160.121813 
Q 1106.46 154.577813 1100.88 154.577813 
L 966.96 154.577813 
Q 961.38 154.577813 961.38 160.121813 
L 961.38 232.193813 
Q 961.38 237.737813 966.96 237.737813 
z
" clip-path="url(#p046ed7dd74)" style="fill: #6a1b9a; stroke: #ffffff; stroke-width: 2.5; stroke-linejoin: miter"/>
   </g>
   <g id="patch_27">
    <path d="M 1156.68 459.497813 
L 1290.6 459.497813 
Q 1296.18 459.497813 1296.18 453.953813 
L 1296.18 381.881813 
Q 1296.18 376.337813 1290.6 376.337813 
L 1156.68 376.337813 
Q 1151.1 376.337813 1151.1 381.881813 
L 1151.1 453.953813 
Q 1151.1 459.497813 1156.68 459.497813 
z
" clip-path="url(#p046ed7dd74)" style="fill: #311b92; stroke: #ffffff; stroke-width: 2.5; stroke-linejoin: miter"/>
   </g>
   <g id="text_8">
    <!-- OFF -->
    <g style="fill: #ffffff" transform="translate(95.449766 420.953125)scale(0.11 -0.11)">
     <defs>
      <path id="DejaVuSans-Bold-46" d="M 588 4666 
L 3834 4666 
L 3834 3756 
L 1791 3756 
L 1791 2888 
L 3713 2888 
L 3713 1978 
L 1791 1978 
L 1791 0 
L 588 0 
L 588 4666 
z
" transform="scale(0.015625)"/>
     </defs>
     <use xlink:href="#DejaVuSans-Bold-4f"/>
     <use xlink:href="#DejaVuSans-Bold-46" x="85.009766"/>
     <use xlink:href="#DejaVuSans-Bold-46" x="153.320312"/>
    </g>
   </g>
   <g id="text_9">
    <!-- STANDBY -->
    <g style="fill: #ffffff" transform="translate(268.776328 407.093125)scale(0.11 -0.11)">
     <defs>
      <path id="DejaVuSans-Bold-4e" d="M 588 4666 
L 1931 4666 
L 3628 1466 
L 3628 4666 
L 4769 4666 
L 4769 0 
L 3425 0 
L 1728 3200 
L 1728 0 
L 588 0 
L 588 4666 
z
" transform="scale(0.015625)"/>
      <path id="DejaVuSans-Bold-59" d="M -63 4666 
L 1253 4666 
L 2316 3003 
L 3378 4666 
L 4697 4666 
L 2919 1966 
L 2919 0 
L 1716 0 
L 1716 1966 
L -63 4666 
z
" transform="scale(0.015625)"/>
     </defs>
     <use xlink:href="#DejaVuSans-Bold-53"/>
     <use xlink:href="#DejaVuSans-Bold-54" x="72.021484"/>
     <use xlink:href="#DejaVuSans-Bold-41" x="132.484375"/>
     <use xlink:href="#DejaVuSans-Bold-4e" x="209.876953"/>
     <use xlink:href="#DejaVuSans-Bold-44" x="293.568359"/>
     <use xlink:href="#DejaVuSans-Bold-42" x="376.576172"/>
     <use xlink:href="#DejaVuSans-Bold-59" x="447.296875"/>
    </g>
   </g>
   <g id="text_10">
    <!-- v ∈ [5–60] km/h -->
    <g style="fill: #ffecb3" transform="translate(266.87543 433.847344)scale(0.075 -0.075)">
     <defs>
      <path id="DejaVuSans-2208" d="M 1072 1959 
Q 1094 1728 1291 1353 
Q 1522 919 1959 675 
Q 2388 438 2850 434 
L 5028 434 
L 5028 -63 
L 2850 -63 
Q 2250 -63 1695 246 
Q 1141 556 844 1106 
Q 547 1656 547 2241 
Q 547 2819 844 3369 
Q 1141 3919 1695 4231 
Q 2250 4544 2850 4544 
L 5028 4544 
L 5028 4047 
L 2850 4047 
Q 2388 4044 1959 3803 
Q 1525 3556 1291 3125 
Q 1091 2750 1063 2459 
L 5028 2459 
L 5028 1959 
L 1072 1959 
z
" transform="scale(0.015625)"/>
      <path id="DejaVuSans-5b" d="M 550 4863 
L 1875 4863 
L 1875 4416 
L 1125 4416 
L 1125 -397 
L 1875 -397 
L 1875 -844 
L 550 -844 
L 550 4863 
z
" transform="scale(0.015625)"/>
      <path id="DejaVuSans-2013" d="M 313 1978 
L 2888 1978 
L 2888 1528 
L 313 1528 
L 313 1978 
z
" transform="scale(0.015625)"/>
      <path id="DejaVuSans-36" d="M 2113 2584 
Q 1688 2584 1439 2293 
Q 1191 2003 1191 1497 
Q 1191 994 1439 701 
Q 1688 409 2113 409 
Q 2538 409 2786 701 
Q 3034 994 3034 1497 
Q 3034 2003 2786 2293 
Q 2538 2584 2113 2584 
z
M 3366 4563 
L 3366 3988 
Q 3128 4100 2886 4159 
Q 2644 4219 2406 4219 
Q 1781 4219 1451 3797 
Q 1122 3375 1075 2522 
Q 1259 2794 1537 2939 
Q 1816 3084 2150 3084 
Q 2853 3084 3261 2657 
Q 3669 2231 3669 1497 
Q 3669 778 3244 343 
Q 2819 -91 2113 -91 
Q 1303 -91 875 529 
Q 447 1150 447 2328 
Q 447 3434 972 4092 
Q 1497 4750 2381 4750 
Q 2619 4750 2861 4703 
Q 3103 4656 3366 4563 
z
" transform="scale(0.015625)"/>
      <path id="DejaVuSans-30" d="M 2034 4250 
Q 1547 4250 1301 3770 
Q 1056 3291 1056 2328 
Q 1056 1369 1301 889 
Q 1547 409 2034 409 
Q 2525 409 2770 889 
Q 3016 1369 3016 2328 
Q 3016 3291 2770 3770 
Q 2525 4250 2034 4250 
z
M 2034 4750 
Q 2819 4750 3233 4129 
Q 3647 3509 3647 2328 
Q 3647 1150 3233 529 
Q 2819 -91 2034 -91 
Q 1250 -91 836 529 
Q 422 1150 422 2328 
Q 422 3509 836 4129 
Q 1250 4750 2034 4750 
z
" transform="scale(0.015625)"/>
      <path id="DejaVuSans-5d" d="M 1947 4863 
L 1947 -844 
L 622 -844 
L 622 -397 
L 1369 -397 
L 1369 4416 
L 622 4416 
L 622 4863 
L 1947 4863 
z
" transform="scale(0.015625)"/>
      <path id="DejaVuSans-2f" d="M 1625 4666 
L 2156 4666 
L 531 -594 
L 0 -594 
L 1625 4666 
z
" transform="scale(0.015625)"/>
      <path id="DejaVuSans-68" d="M 3513 2113 
L 3513 0 
L 2938 0 
L 2938 2094 
Q 2938 2591 2744 2837 
Q 2550 3084 2163 3084 
Q 1697 3084 1428 2787 
Q 1159 2491 1159 1978 
L 1159 0 
L 581 0 
L 581 4863 
L 1159 4863 
L 1159 2956 
Q 1366 3272 1645 3428 
Q 1925 3584 2291 3584 
Q 2894 3584 3203 3211 
Q 3513 2838 3513 2113 
z
" transform="scale(0.015625)"/>
     </defs>
     <use xlink:href="#DejaVuSans-76"/>
     <use xlink:href="#DejaVuSans-20" x="59.179688"/>
     <use xlink:href="#DejaVuSans-2208" x="90.966797"/>
     <use xlink:href="#DejaVuSans-20" x="178.076172"/>
     <use xlink:href="#DejaVuSans-5b" x="209.863281"/>
     <use xlink:href="#DejaVuSans-35" x="248.876953"/>
     <use xlink:href="#DejaVuSans-2013" x="312.5"/>
     <use xlink:href="#DejaVuSans-36" x="362.5"/>
     <use xlink:href="#DejaVuSans-30" x="426.123047"/>
     <use xlink:href="#DejaVuSans-5d" x="489.746094"/>
     <use xlink:href="#DejaVuSans-20" x="528.759766"/>
     <use xlink:href="#DejaVuSans-6b" x="560.546875"/>
     <use xlink:href="#DejaVuSans-6d" x="618.457031"/>
     <use xlink:href="#DejaVuSans-2f" x="715.869141"/>
     <use xlink:href="#DejaVuSans-68" x="749.560547"/>
    </g>
   </g>
   <g id="text_11">
    <!-- WARNING -->
    <g style="fill: #ffffff" transform="translate(468.163594 185.333125)scale(0.11 -0.11)">
     <defs>
      <path id="DejaVuSans-Bold-57" d="M 191 4666 
L 1344 4666 
L 2150 1275 
L 2950 4666 
L 4109 4666 
L 4909 1275 
L 5716 4666 
L 6859 4666 
L 5759 0 
L 4372 0 
L 3525 3547 
L 2688 0 
L 1300 0 
L 191 4666 
z
" transform="scale(0.015625)"/>
      <path id="DejaVuSans-Bold-52" d="M 2297 2597 
Q 2675 2597 2839 2737 
Q 3003 2878 3003 3200 
Q 3003 3519 2839 3656 
Q 2675 3794 2297 3794 
L 1791 3794 
L 1791 2597 
L 2297 2597 
z
M 1791 1766 
L 1791 0 
L 588 0 
L 588 4666 
L 2425 4666 
Q 3347 4666 3776 4356 
Q 4206 4047 4206 3378 
Q 4206 2916 3982 2619 
Q 3759 2322 3309 2181 
Q 3556 2125 3751 1926 
Q 3947 1728 4147 1325 
L 4800 0 
L 3519 0 
L 2950 1159 
Q 2778 1509 2601 1637 
Q 2425 1766 2131 1766 
L 1791 1766 
z
" transform="scale(0.015625)"/>
      <path id="DejaVuSans-Bold-49" d="M 588 4666 
L 1791 4666 
L 1791 0 
L 588 0 
L 588 4666 
z
" transform="scale(0.015625)"/>
      <path id="DejaVuSans-Bold-47" d="M 4781 347 
Q 4331 128 3847 18 
Q 3363 -91 2847 -91 
Q 1681 -91 1000 561 
Q 319 1213 319 2328 
Q 319 3456 1012 4103 
Q 1706 4750 2913 4750 
Q 3378 4750 3804 4662 
Q 4231 4575 4609 4403 
L 4609 3438 
Q 4219 3659 3833 3768 
Q 3447 3878 3059 3878 
Q 2341 3878 1952 3476 
Q 1563 3075 1563 2328 
Q 1563 1588 1938 1184 
Q 2313 781 3003 781 
Q 3191 781 3352 804 
Q 3513 828 3641 878 
L 3641 1784 
L 2906 1784 
L 2906 2591 
L 4781 2591 
L 4781 347 
z
" transform="scale(0.015625)"/>
     </defs>
     <use xlink:href="#DejaVuSans-Bold-57"/>
     <use xlink:href="#DejaVuSans-Bold-41" x="105.802734"/>
     <use xlink:href="#DejaVuSans-Bold-52" x="183.195312"/>
     <use xlink:href="#DejaVuSans-Bold-4e" x="260.197266"/>
     <use xlink:href="#DejaVuSans-Bold-49" x="343.888672"/>
     <use xlink:href="#DejaVuSans-Bold-4e" x="381.095703"/>
     <use xlink:href="#DejaVuSans-Bold-47" x="464.787109"/>
    </g>
   </g>
   <g id="text_12">
    <!-- TTC ≤ 4.0 s -->
    <g style="fill: #ffecb3" transform="translate(476.691563 212.087344)scale(0.075 -0.075)">
     <defs>
      <path id="DejaVuSans-2264" d="M 4684 3175 
L 1684 2309 
L 4684 1453 
L 4684 897 
L 678 2047 
L 678 2578 
L 4684 3725 
L 4684 3175 
z
M 678 531 
L 4684 531 
L 4684 0 
L 678 0 
L 678 531 
z
" transform="scale(0.015625)"/>
      <path id="DejaVuSans-34" d="M 2419 4116 
L 825 1625 
L 2419 1625 
L 2419 4116 
z
M 2253 4666 
L 3047 4666 
L 3047 1625 
L 3713 1625 
L 3713 1100 
L 3047 1100 
L 3047 0 
L 2419 0 
L 2419 1100 
L 313 1100 
L 313 1709 
L 2253 4666 
z
" transform="scale(0.015625)"/>
      <path id="DejaVuSans-2e" d="M 684 794 
L 1344 794 
L 1344 0 
L 684 0 
L 684 794 
z
" transform="scale(0.015625)"/>
     </defs>
     <use xlink:href="#DejaVuSans-54"/>
     <use xlink:href="#DejaVuSans-54" x="59.333984"/>
     <use xlink:href="#DejaVuSans-43" x="114.542969"/>
     <use xlink:href="#DejaVuSans-20" x="184.367188"/>
     <use xlink:href="#DejaVuSans-2264" x="216.154297"/>
     <use xlink:href="#DejaVuSans-20" x="299.943359"/>
     <use xlink:href="#DejaVuSans-34" x="331.730469"/>
     <use xlink:href="#DejaVuSans-2e" x="395.353516"/>
     <use xlink:href="#DejaVuSans-30" x="427.140625"/>
     <use xlink:href="#DejaVuSans-20" x="490.763672"/>
     <use xlink:href="#DejaVuSans-73" x="522.550781"/>
    </g>
   </g>
   <g id="text_13">
    <!-- BRAKE L1 -->
    <g style="fill: #ffffff" transform="translate(646.851641 185.333125)scale(0.11 -0.11)">
     <defs>
      <path id="DejaVuSans-Bold-4b" d="M 588 4666 
L 1791 4666 
L 1791 2963 
L 3525 4666 
L 4922 4666 
L 2675 2456 
L 5153 0 
L 3647 0 
L 1791 1838 
L 1791 0 
L 588 0 
L 588 4666 
z
" transform="scale(0.015625)"/>
      <path id="DejaVuSans-Bold-31" d="M 750 831 
L 1813 831 
L 1813 3847 
L 722 3622 
L 722 4441 
L 1806 4666 
L 2950 4666 
L 2950 831 
L 4013 831 
L 4013 0 
L 750 0 
L 750 831 
z
" transform="scale(0.015625)"/>
     </defs>
     <use xlink:href="#DejaVuSans-Bold-42"/>
     <use xlink:href="#DejaVuSans-Bold-52" x="76.220703"/>
     <use xlink:href="#DejaVuSans-Bold-41" x="153.222656"/>
     <use xlink:href="#DejaVuSans-Bold-4b" x="230.615234"/>
     <use xlink:href="#DejaVuSans-Bold-45" x="308.105469"/>
     <use xlink:href="#DejaVuSans-Bold-20" x="376.416016"/>
     <use xlink:href="#DejaVuSans-Bold-4c" x="411.230469"/>
     <use xlink:href="#DejaVuSans-Bold-31" x="474.951172"/>
    </g>
   </g>
   <g id="text_14">
    <!-- TTC ≤ 3.0 s | D ≤ 20 m -->
    <g style="fill: #ffecb3" transform="translate(633.574805 206.945449)scale(0.075 -0.075)">
     <defs>
      <path id="DejaVuSans-33" d="M 2597 2516 
Q 3050 2419 3304 2112 
Q 3559 1806 3559 1356 
Q 3559 666 3084 287 
Q 2609 -91 1734 -91 
Q 1441 -91 1130 -33 
Q 819 25 488 141 
L 488 750 
Q 750 597 1062 519 
Q 1375 441 1716 441 
Q 2309 441 2620 675 
Q 2931 909 2931 1356 
Q 2931 1769 2642 2001 
Q 2353 2234 1838 2234 
L 1294 2234 
L 1294 2753 
L 1863 2753 
Q 2328 2753 2575 2939 
Q 2822 3125 2822 3475 
Q 2822 3834 2567 4026 
Q 2313 4219 1838 4219 
Q 1578 4219 1281 4162 
Q 984 4106 628 3988 
L 628 4550 
Q 988 4650 1302 4700 
Q 1616 4750 1894 4750 
Q 2613 4750 3031 4423 
Q 3450 4097 3450 3541 
Q 3450 3153 3228 2886 
Q 3006 2619 2597 2516 
z
" transform="scale(0.015625)"/>
      <path id="DejaVuSans-7c" d="M 1344 4891 
L 1344 -1509 
L 813 -1509 
L 813 4891 
L 1344 4891 
z
" transform="scale(0.015625)"/>
      <path id="DejaVuSans-32" d="M 1228 531 
L 3431 531 
L 3431 0 
L 469 0 
L 469 531 
Q 828 903 1448 1529 
Q 2069 2156 2228 2338 
Q 2531 2678 2651 2914 
Q 2772 3150 2772 3378 
Q 2772 3750 2511 3984 
Q 2250 4219 1831 4219 
Q 1534 4219 1204 4116 
Q 875 4013 500 3803 
L 500 4441 
Q 881 4594 1212 4672 
Q 1544 4750 1819 4750 
Q 2544 4750 2975 4387 
Q 3406 4025 3406 3419 
Q 3406 3131 3298 2873 
Q 3191 2616 2906 2266 
Q 2828 2175 2409 1742 
Q 1991 1309 1228 531 
z
" transform="scale(0.015625)"/>
     </defs>
     <use xlink:href="#DejaVuSans-54"/>
     <use xlink:href="#DejaVuSans-54" x="59.333984"/>
     <use xlink:href="#DejaVuSans-43" x="114.542969"/>
     <use xlink:href="#DejaVuSans-20" x="184.367188"/>
     <use xlink:href="#DejaVuSans-2264" x="216.154297"/>
     <use xlink:href="#DejaVuSans-20" x="299.943359"/>
     <use xlink:href="#DejaVuSans-33" x="331.730469"/>
     <use xlink:href="#DejaVuSans-2e" x="395.353516"/>
     <use xlink:href="#DejaVuSans-30" x="427.140625"/>
     <use xlink:href="#DejaVuSans-20" x="490.763672"/>
     <use xlink:href="#DejaVuSans-73" x="522.550781"/>
     <use xlink:href="#DejaVuSans-20" x="574.650391"/>
     <use xlink:href="#DejaVuSans-7c" x="606.4375"/>
     <use xlink:href="#DejaVuSans-20" x="640.128906"/>
     <use xlink:href="#DejaVuSans-44" x="671.916016"/>
     <use xlink:href="#DejaVuSans-20" x="748.917969"/>
     <use xlink:href="#DejaVuSans-2264" x="780.705078"/>
     <use xlink:href="#DejaVuSans-20" x="864.494141"/>
     <use xlink:href="#DejaVuSans-32" x="896.28125"/>
     <use xlink:href="#DejaVuSans-30" x="959.904297"/>
     <use xlink:href="#DejaVuSans-20" x="1023.527344"/>
     <use xlink:href="#DejaVuSans-6d" x="1055.314453"/>
    </g>
    <!-- −2 m/s² -->
    <g style="fill: #ffecb3" transform="translate(661.706836 217.262051)scale(0.075 -0.075)">
     <defs>
      <path id="DejaVuSans-2212" d="M 678 2272 
L 4684 2272 
L 4684 1741 
L 678 1741 
L 678 2272 
z
" transform="scale(0.015625)"/>
      <path id="DejaVuSans-b2" d="M 838 2444 
L 2163 2444 
L 2163 2088 
L 294 2088 
L 294 2431 
Q 400 2528 597 2703 
Q 1672 3656 1672 3950 
Q 1672 4156 1509 4282 
Q 1347 4409 1081 4409 
Q 919 4409 728 4354 
Q 538 4300 313 4191 
L 313 4575 
Q 553 4663 761 4706 
Q 969 4750 1147 4750 
Q 1600 4750 1872 4544 
Q 2144 4338 2144 4000 
Q 2144 3566 1109 2678 
Q 934 2528 838 2444 
z
" transform="scale(0.015625)"/>
     </defs>
     <use xlink:href="#DejaVuSans-2212"/>
     <use xlink:href="#DejaVuSans-32" x="83.789062"/>
     <use xlink:href="#DejaVuSans-20" x="147.412109"/>
     <use xlink:href="#DejaVuSans-6d" x="179.199219"/>
     <use xlink:href="#DejaVuSans-2f" x="276.611328"/>
     <use xlink:href="#DejaVuSans-73" x="310.302734"/>
     <use xlink:href="#DejaVuSans-b2" x="362.402344"/>
    </g>
   </g>
   <g id="text_15">
    <!-- BRAKE L2 -->
    <g style="fill: #ffffff" transform="translate(825.411641 185.333125)scale(0.11 -0.11)">
     <defs>
      <path id="DejaVuSans-Bold-32" d="M 1844 884 
L 3897 884 
L 3897 0 
L 506 0 
L 506 884 
L 2209 2388 
Q 2438 2594 2547 2791 
Q 2656 2988 2656 3200 
Q 2656 3528 2436 3728 
Q 2216 3928 1850 3928 
Q 1569 3928 1234 3808 
Q 900 3688 519 3450 
L 519 4475 
Q 925 4609 1322 4679 
Q 1719 4750 2100 4750 
Q 2938 4750 3402 4381 
Q 3866 4013 3866 3353 
Q 3866 2972 3669 2642 
Q 3472 2313 2841 1759 
L 1844 884 
z
" transform="scale(0.015625)"/>
     </defs>
     <use xlink:href="#DejaVuSans-Bold-42"/>
     <use xlink:href="#DejaVuSans-Bold-52" x="76.220703"/>
     <use xlink:href="#DejaVuSans-Bold-41" x="153.222656"/>
     <use xlink:href="#DejaVuSans-Bold-4b" x="230.615234"/>
     <use xlink:href="#DejaVuSans-Bold-45" x="308.105469"/>
     <use xlink:href="#DejaVuSans-Bold-20" x="376.416016"/>
     <use xlink:href="#DejaVuSans-Bold-4c" x="411.230469"/>
     <use xlink:href="#DejaVuSans-Bold-32" x="474.951172"/>
    </g>
   </g>
   <g id="text_16">
    <!-- TTC ≤ 2.2 s | D ≤ 10 m -->
    <g style="fill: #ffecb3" transform="translate(812.134805 206.945449)scale(0.075 -0.075)">
     <defs>
      <path id="DejaVuSans-31" d="M 794 531 
L 1825 531 
L 1825 4091 
L 703 3866 
L 703 4441 
L 1819 4666 
L 2450 4666 
L 2450 531 
L 3481 531 
L 3481 0 
L 794 0 
L 794 531 
z
" transform="scale(0.015625)"/>
     </defs>
     <use xlink:href="#DejaVuSans-54"/>
     <use xlink:href="#DejaVuSans-54" x="59.333984"/>
     <use xlink:href="#DejaVuSans-43" x="114.542969"/>
     <use xlink:href="#DejaVuSans-20" x="184.367188"/>
     <use xlink:href="#DejaVuSans-2264" x="216.154297"/>
     <use xlink:href="#DejaVuSans-20" x="299.943359"/>
     <use xlink:href="#DejaVuSans-32" x="331.730469"/>
     <use xlink:href="#DejaVuSans-2e" x="395.353516"/>
     <use xlink:href="#DejaVuSans-32" x="427.140625"/>
     <use xlink:href="#DejaVuSans-20" x="490.763672"/>
     <use xlink:href="#DejaVuSans-73" x="522.550781"/>
     <use xlink:href="#DejaVuSans-20" x="574.650391"/>
     <use xlink:href="#DejaVuSans-7c" x="606.4375"/>
     <use xlink:href="#DejaVuSans-20" x="640.128906"/>
     <use xlink:href="#DejaVuSans-44" x="671.916016"/>
     <use xlink:href="#DejaVuSans-20" x="748.917969"/>
     <use xlink:href="#DejaVuSans-2264" x="780.705078"/>
     <use xlink:href="#DejaVuSans-20" x="864.494141"/>
     <use xlink:href="#DejaVuSans-31" x="896.28125"/>
     <use xlink:href="#DejaVuSans-30" x="959.904297"/>
     <use xlink:href="#DejaVuSans-20" x="1023.527344"/>
     <use xlink:href="#DejaVuSans-6d" x="1055.314453"/>
    </g>
    <!-- −4 m/s² -->
    <g style="fill: #ffecb3" transform="translate(840.266836 217.262051)scale(0.075 -0.075)">
     <use xlink:href="#DejaVuSans-2212"/>
     <use xlink:href="#DejaVuSans-34" x="83.789062"/>
     <use xlink:href="#DejaVuSans-20" x="147.412109"/>
     <use xlink:href="#DejaVuSans-6d" x="179.199219"/>
     <use xlink:href="#DejaVuSans-2f" x="276.611328"/>
     <use xlink:href="#DejaVuSans-73" x="310.302734"/>
     <use xlink:href="#DejaVuSans-b2" x="362.402344"/>
    </g>
   </g>
   <g id="text_17">
    <!-- BRAKE L3 -->
    <g style="fill: #ffffff" transform="translate(1003.971641 185.333125)scale(0.11 -0.11)">
     <defs>
      <path id="DejaVuSans-Bold-33" d="M 2981 2516 
Q 3453 2394 3698 2092 
Q 3944 1791 3944 1325 
Q 3944 631 3412 270 
Q 2881 -91 1863 -91 
Q 1503 -91 1142 -33 
Q 781 25 428 141 
L 428 1069 
Q 766 900 1098 814 
Q 1431 728 1753 728 
Q 2231 728 2486 893 
Q 2741 1059 2741 1369 
Q 2741 1688 2480 1852 
Q 2219 2016 1709 2016 
L 1228 2016 
L 1228 2791 
L 1734 2791 
Q 2188 2791 2409 2933 
Q 2631 3075 2631 3366 
Q 2631 3634 2415 3781 
Q 2200 3928 1806 3928 
Q 1516 3928 1219 3862 
Q 922 3797 628 3669 
L 628 4550 
Q 984 4650 1334 4700 
Q 1684 4750 2022 4750 
Q 2931 4750 3382 4451 
Q 3834 4153 3834 3553 
Q 3834 3144 3618 2883 
Q 3403 2622 2981 2516 
z
" transform="scale(0.015625)"/>
     </defs>
     <use xlink:href="#DejaVuSans-Bold-42"/>
     <use xlink:href="#DejaVuSans-Bold-52" x="76.220703"/>
     <use xlink:href="#DejaVuSans-Bold-41" x="153.222656"/>
     <use xlink:href="#DejaVuSans-Bold-4b" x="230.615234"/>
     <use xlink:href="#DejaVuSans-Bold-45" x="308.105469"/>
     <use xlink:href="#DejaVuSans-Bold-20" x="376.416016"/>
     <use xlink:href="#DejaVuSans-Bold-4c" x="411.230469"/>
     <use xlink:href="#DejaVuSans-Bold-33" x="474.951172"/>
    </g>
   </g>
   <g id="text_18">
    <!-- TTC ≤ 1.8 s | D ≤ 5 m -->
    <g style="fill: #ffecb3" transform="translate(993.080742 206.945449)scale(0.075 -0.075)">
     <defs>
      <path id="DejaVuSans-38" d="M 2034 2216 
Q 1584 2216 1326 1975 
Q 1069 1734 1069 1313 
Q 1069 891 1326 650 
Q 1584 409 2034 409 
Q 2484 409 2743 651 
Q 3003 894 3003 1313 
Q 3003 1734 2745 1975 
Q 2488 2216 2034 2216 
z
M 1403 2484 
Q 997 2584 770 2862 
Q 544 3141 544 3541 
Q 544 4100 942 4425 
Q 1341 4750 2034 4750 
Q 2731 4750 3128 4425 
Q 3525 4100 3525 3541 
Q 3525 3141 3298 2862 
Q 3072 2584 2669 2484 
Q 3125 2378 3379 2068 
Q 3634 1759 3634 1313 
Q 3634 634 3220 271 
Q 2806 -91 2034 -91 
Q 1263 -91 848 271 
Q 434 634 434 1313 
Q 434 1759 690 2068 
Q 947 2378 1403 2484 
z
M 1172 3481 
Q 1172 3119 1398 2916 
Q 1625 2713 2034 2713 
Q 2441 2713 2670 2916 
Q 2900 3119 2900 3481 
Q 2900 3844 2670 4047 
Q 2441 4250 2034 4250 
Q 1625 4250 1398 4047 
Q 1172 3844 1172 3481 
z
" transform="scale(0.015625)"/>
     </defs>
     <use xlink:href="#DejaVuSans-54"/>
     <use xlink:href="#DejaVuSans-54" x="59.333984"/>
     <use xlink:href="#DejaVuSans-43" x="114.542969"/>
     <use xlink:href="#DejaVuSans-20" x="184.367188"/>
     <use xlink:href="#DejaVuSans-2264" x="216.154297"/>
     <use xlink:href="#DejaVuSans-20" x="299.943359"/>
     <use xlink:href="#DejaVuSans-31" x="331.730469"/>
     <use xlink:href="#DejaVuSans-2e" x="395.353516"/>
     <use xlink:href="#DejaVuSans-38" x="427.140625"/>
     <use xlink:href="#DejaVuSans-20" x="490.763672"/>
     <use xlink:href="#DejaVuSans-73" x="522.550781"/>
     <use xlink:href="#DejaVuSans-20" x="574.650391"/>
     <use xlink:href="#DejaVuSans-7c" x="606.4375"/>
     <use xlink:href="#DejaVuSans-20" x="640.128906"/>
     <use xlink:href="#DejaVuSans-44" x="671.916016"/>
     <use xlink:href="#DejaVuSans-20" x="748.917969"/>
     <use xlink:href="#DejaVuSans-2264" x="780.705078"/>
     <use xlink:href="#DejaVuSans-20" x="864.494141"/>
     <use xlink:href="#DejaVuSans-35" x="896.28125"/>
     <use xlink:href="#DejaVuSans-20" x="959.904297"/>
     <use xlink:href="#DejaVuSans-6d" x="991.691406"/>
    </g>
    <!-- −6 m/s² -->
    <g style="fill: #ffecb3" transform="translate(1018.826836 217.262051)scale(0.075 -0.075)">
     <use xlink:href="#DejaVuSans-2212"/>
     <use xlink:href="#DejaVuSans-36" x="83.789062"/>
     <use xlink:href="#DejaVuSans-20" x="147.412109"/>
     <use xlink:href="#DejaVuSans-6d" x="179.199219"/>
     <use xlink:href="#DejaVuSans-2f" x="276.611328"/>
     <use xlink:href="#DejaVuSans-73" x="310.302734"/>
     <use xlink:href="#DejaVuSans-b2" x="362.402344"/>
    </g>
   </g>
   <g id="text_19">
    <!-- POST-BRAKE -->
    <g style="fill: #ffffff" transform="translate(1185.046328 407.093125)scale(0.11 -0.11)">
     <defs>
      <path id="DejaVuSans-Bold-2d" d="M 347 2297 
L 2309 2297 
L 2309 1388 
L 347 1388 
L 347 2297 
z
" transform="scale(0.015625)"/>
     </defs>
     <use xlink:href="#DejaVuSans-Bold-50"/>
     <use xlink:href="#DejaVuSans-Bold-4f" x="73.291016"/>
     <use xlink:href="#DejaVuSans-Bold-53" x="158.300781"/>
     <use xlink:href="#DejaVuSans-Bold-54" x="230.322266"/>
     <use xlink:href="#DejaVuSans-Bold-2d" x="283.785156"/>
     <use xlink:href="#DejaVuSans-Bold-42" x="325.289062"/>
     <use xlink:href="#DejaVuSans-Bold-52" x="401.509766"/>
     <use xlink:href="#DejaVuSans-Bold-41" x="478.511719"/>
     <use xlink:href="#DejaVuSans-Bold-4b" x="555.904297"/>
     <use xlink:href="#DejaVuSans-Bold-45" x="633.394531"/>
    </g>
   </g>
   <g id="text_20">
    <!-- v_ego = 0 -->
    <g style="fill: #ffecb3" transform="translate(1204.650938 428.622832)scale(0.075 -0.075)">
     <defs>
      <path id="DejaVuSans-5f" d="M 3263 -1063 
L 3263 -1509 
L -63 -1509 
L -63 -1063 
L 3263 -1063 
z
" transform="scale(0.015625)"/>
      <path id="DejaVuSans-3d" d="M 678 2906 
L 4684 2906 
L 4684 2381 
L 678 2381 
L 678 2906 
z
M 678 1631 
L 4684 1631 
L 4684 1100 
L 678 1100 
L 678 1631 
z
" transform="scale(0.015625)"/>
     </defs>
     <use xlink:href="#DejaVuSans-76"/>
     <use xlink:href="#DejaVuSans-5f" x="59.179688"/>
     <use xlink:href="#DejaVuSans-65" x="109.179688"/>
     <use xlink:href="#DejaVuSans-67" x="170.703125"/>
     <use xlink:href="#DejaVuSans-6f" x="234.179688"/>
     <use xlink:href="#DejaVuSans-20" x="295.361328"/>
     <use xlink:href="#DejaVuSans-3d" x="327.148438"/>
     <use xlink:href="#DejaVuSans-20" x="410.9375"/>
     <use xlink:href="#DejaVuSans-30" x="442.724609"/>
    </g>
    <!-- −6 m/s² for 2 s -->
    <g style="fill: #ffecb3" transform="translate(1195.475742 438.939434)scale(0.075 -0.075)">
     <use xlink:href="#DejaVuSans-2212"/>
     <use xlink:href="#DejaVuSans-36" x="83.789062"/>
     <use xlink:href="#DejaVuSans-20" x="147.412109"/>
     <use xlink:href="#DejaVuSans-6d" x="179.199219"/>
     <use xlink:href="#DejaVuSans-2f" x="276.611328"/>
     <use xlink:href="#DejaVuSans-73" x="310.302734"/>
     <use xlink:href="#DejaVuSans-b2" x="362.402344"/>
     <use xlink:href="#DejaVuSans-20" x="402.490234"/>
     <use xlink:href="#DejaVuSans-66" x="434.277344"/>
     <use xlink:href="#DejaVuSans-6f" x="469.482422"/>
     <use xlink:href="#DejaVuSans-72" x="530.664062"/>
     <use xlink:href="#DejaVuSans-20" x="571.777344"/>
     <use xlink:href="#DejaVuSans-32" x="603.564453"/>
     <use xlink:href="#DejaVuSans-20" x="667.1875"/>
     <use xlink:href="#DejaVuSans-73" x="698.974609"/>
    </g>
   </g>
   <g id="text_21">
    <g id="patch_28">
     <path d="M 145.073672 375.076969 
L 259.926328 375.076969 
Q 262.626328 375.076969 262.626328 372.376969 
L 262.626328 363.666656 
Q 262.626328 360.966656 259.926328 360.966656 
L 145.073672 360.966656 
Q 142.373672 360.966656 142.373672 363.666656 
L 142.373672 372.376969 
Q 142.373672 375.076969 145.073672 375.076969 
z
" style="fill: #e3f2fd; opacity: 0.95"/>
    </g>
    <!-- Ignition ON  /  v &gt; 5 km/h -->
    <g style="fill: #1565c0" transform="translate(145.073672 370.50525)scale(0.09 -0.09)">
     <defs>
      <path id="DejaVuSans-4e" d="M 628 4666 
L 1478 4666 
L 3547 763 
L 3547 4666 
L 4159 4666 
L 4159 0 
L 3309 0 
L 1241 3903 
L 1241 0 
L 628 0 
L 628 4666 
z
" transform="scale(0.015625)"/>
     </defs>
     <use xlink:href="#DejaVuSans-49"/>
     <use xlink:href="#DejaVuSans-67" x="29.492188"/>
     <use xlink:href="#DejaVuSans-6e" x="92.96875"/>
     <use xlink:href="#DejaVuSans-69" x="156.347656"/>
     <use xlink:href="#DejaVuSans-74" x="184.130859"/>
     <use xlink:href="#DejaVuSans-69" x="223.339844"/>
     <use xlink:href="#DejaVuSans-6f" x="251.123047"/>
     <use xlink:href="#DejaVuSans-6e" x="312.304688"/>
     <use xlink:href="#DejaVuSans-20" x="375.683594"/>
     <use xlink:href="#DejaVuSans-4f" x="407.470703"/>
     <use xlink:href="#DejaVuSans-4e" x="486.181641"/>
     <use xlink:href="#DejaVuSans-20" x="560.986328"/>
     <use xlink:href="#DejaVuSans-20" x="592.773438"/>
     <use xlink:href="#DejaVuSans-2f" x="624.560547"/>
     <use xlink:href="#DejaVuSans-20" x="658.251953"/>
     <use xlink:href="#DejaVuSans-20" x="690.039062"/>
     <use xlink:href="#DejaVuSans-76" x="721.826172"/>
     <use xlink:href="#DejaVuSans-20" x="781.005859"/>
     <use xlink:href="#DejaVuSans-3e" x="812.792969"/>
     <use xlink:href="#DejaVuSans-20" x="896.582031"/>
     <use xlink:href="#DejaVuSans-35" x="928.369141"/>
     <use xlink:href="#DejaVuSans-20" x="991.992188"/>
     <use xlink:href="#DejaVuSans-6b" x="1023.779297"/>
     <use xlink:href="#DejaVuSans-6d" x="1081.689453"/>
     <use xlink:href="#DejaVuSans-2f" x="1179.101562"/>
     <use xlink:href="#DejaVuSans-68" x="1212.792969"/>
    </g>
   </g>
   <g id="text_22">
    <g id="patch_29">
     <path d="M 157.023281 474.868969 
L 247.976719 474.868969 
Q 250.676719 474.868969 250.676719 472.168969 
L 250.676719 463.458656 
Q 250.676719 460.758656 247.976719 460.758656 
L 157.023281 460.758656 
Q 154.323281 460.758656 154.323281 463.458656 
L 154.323281 472.168969 
Q 154.323281 474.868969 157.023281 474.868969 
z
" style="fill: #ffffff; opacity: 0.95"/>
    </g>
    <!-- v &lt; 5 km/h  or  fault -->
    <g style="fill: #546e7a" transform="translate(157.023281 470.29725)scale(0.09 -0.09)">
     <defs>
      <path id="DejaVuSans-3c" d="M 4684 3150 
L 1459 2003 
L 4684 863 
L 4684 294 
L 678 1747 
L 678 2266 
L 4684 3719 
L 4684 3150 
z
" transform="scale(0.015625)"/>
      <path id="DejaVuSans-75" d="M 544 1381 
L 544 3500 
L 1119 3500 
L 1119 1403 
Q 1119 906 1312 657 
Q 1506 409 1894 409 
Q 2359 409 2629 706 
Q 2900 1003 2900 1516 
L 2900 3500 
L 3475 3500 
L 3475 0 
L 2900 0 
L 2900 538 
Q 2691 219 2414 64 
Q 2138 -91 1772 -91 
Q 1169 -91 856 284 
Q 544 659 544 1381 
z
M 1991 3584 
L 1991 3584 
z
" transform="scale(0.015625)"/>
     </defs>
     <use xlink:href="#DejaVuSans-76"/>
     <use xlink:href="#DejaVuSans-20" x="59.179688"/>
     <use xlink:href="#DejaVuSans-3c" x="90.966797"/>
     <use xlink:href="#DejaVuSans-20" x="174.755859"/>
     <use xlink:href="#DejaVuSans-35" x="206.542969"/>
     <use xlink:href="#DejaVuSans-20" x="270.166016"/>
     <use xlink:href="#DejaVuSans-6b" x="301.953125"/>
     <use xlink:href="#DejaVuSans-6d" x="359.863281"/>
     <use xlink:href="#DejaVuSans-2f" x="457.275391"/>
     <use xlink:href="#DejaVuSans-68" x="490.966797"/>
     <use xlink:href="#DejaVuSans-20" x="554.345703"/>
     <use xlink:href="#DejaVuSans-20" x="586.132812"/>
     <use xlink:href="#DejaVuSans-6f" x="617.919922"/>
     <use xlink:href="#DejaVuSans-72" x="679.101562"/>
     <use xlink:href="#DejaVuSans-20" x="720.214844"/>
     <use xlink:href="#DejaVuSans-20" x="752.001953"/>
     <use xlink:href="#DejaVuSans-66" x="783.789062"/>
     <use xlink:href="#DejaVuSans-61" x="818.994141"/>
     <use xlink:href="#DejaVuSans-75" x="880.273438"/>
     <use xlink:href="#DejaVuSans-6c" x="943.652344"/>
     <use xlink:href="#DejaVuSans-74" x="971.435547"/>
    </g>
   </g>
   <g id="text_23">
    <g id="patch_30">
     <path d="M 131.467891 532.689016 
L 273.532109 532.689016 
Q 276.082109 532.689016 276.082109 530.139016 
L 276.082109 521.912609 
Q 276.082109 519.362609 273.532109 519.362609 
L 131.467891 519.362609 
Q 128.917891 519.362609 128.917891 521.912609 
L 128.917891 530.139016 
Q 128.917891 532.689016 131.467891 532.689016 
z
" style="fill: #ffffff; opacity: 0.95"/>
    </g>
    <!-- AEB disabled  (InfoCenter switch) -->
    <g style="fill: #546e7a" transform="translate(131.467891 528.371281)scale(0.085 -0.085)">
     <defs>
      <path id="DejaVuSans-77" d="M 269 3500 
L 844 3500 
L 1563 769 
L 2278 3500 
L 2956 3500 
L 3675 769 
L 4391 3500 
L 4966 3500 
L 4050 0 
L 3372 0 
L 2619 2869 
L 1863 0 
L 1184 0 
L 269 3500 
z
" transform="scale(0.015625)"/>
     </defs>
     <use xlink:href="#DejaVuSans-41"/>
     <use xlink:href="#DejaVuSans-45" x="68.408203"/>
     <use xlink:href="#DejaVuSans-42" x="131.591797"/>
     <use xlink:href="#DejaVuSans-20" x="200.195312"/>
     <use xlink:href="#DejaVuSans-64" x="231.982422"/>
     <use xlink:href="#DejaVuSans-69" x="295.458984"/>
     <use xlink:href="#DejaVuSans-73" x="323.242188"/>
     <use xlink:href="#DejaVuSans-61" x="375.341797"/>
     <use xlink:href="#DejaVuSans-62" x="436.621094"/>
     <use xlink:href="#DejaVuSans-6c" x="500.097656"/>
     <use xlink:href="#DejaVuSans-65" x="527.880859"/>
     <use xlink:href="#DejaVuSans-64" x="589.404297"/>
     <use xlink:href="#DejaVuSans-20" x="652.880859"/>
     <use xlink:href="#DejaVuSans-20" x="684.667969"/>
     <use xlink:href="#DejaVuSans-28" x="716.455078"/>
     <use xlink:href="#DejaVuSans-49" x="755.46875"/>
     <use xlink:href="#DejaVuSans-6e" x="784.960938"/>
     <use xlink:href="#DejaVuSans-66" x="848.339844"/>
     <use xlink:href="#DejaVuSans-6f" x="883.544922"/>
     <use xlink:href="#DejaVuSans-43" x="944.726562"/>
     <use xlink:href="#DejaVuSans-65" x="1014.550781"/>
     <use xlink:href="#DejaVuSans-6e" x="1076.074219"/>
     <use xlink:href="#DejaVuSans-74" x="1139.453125"/>
     <use xlink:href="#DejaVuSans-65" x="1178.662109"/>
     <use xlink:href="#DejaVuSans-72" x="1240.185547"/>
     <use xlink:href="#DejaVuSans-20" x="1281.298828"/>
     <use xlink:href="#DejaVuSans-73" x="1313.085938"/>
     <use xlink:href="#DejaVuSans-77" x="1365.185547"/>
     <use xlink:href="#DejaVuSans-69" x="1446.972656"/>
     <use xlink:href="#DejaVuSans-74" x="1474.755859"/>
     <use xlink:href="#DejaVuSans-63" x="1513.964844"/>
     <use xlink:href="#DejaVuSans-68" x="1568.945312"/>
     <use xlink:href="#DejaVuSans-29" x="1632.324219"/>
    </g>
   </g>
   <g id="text_24">
    <g id="patch_31">
     <path d="M 344.041875 303.004969 
L 395.758125 303.004969 
Q 398.458125 303.004969 398.458125 300.304969 
L 398.458125 291.594656 
Q 398.458125 288.894656 395.758125 288.894656 
L 344.041875 288.894656 
Q 341.341875 288.894656 341.341875 291.594656 
L 341.341875 300.304969 
Q 341.341875 303.004969 344.041875 303.004969 
z
" style="fill: #ffffff; opacity: 0.95"/>
    </g>
    <!-- TTC ≤ 4.0 s -->
    <g style="fill: #212121" transform="translate(344.041875 298.43325)scale(0.09 -0.09)">
     <use xlink:href="#DejaVuSans-54"/>
     <use xlink:href="#DejaVuSans-54" x="59.333984"/>
     <use xlink:href="#DejaVuSans-43" x="114.542969"/>
     <use xlink:href="#DejaVuSans-20" x="184.367188"/>
     <use xlink:href="#DejaVuSans-2264" x="216.154297"/>
     <use xlink:href="#DejaVuSans-20" x="299.943359"/>
     <use xlink:href="#DejaVuSans-34" x="331.730469"/>
     <use xlink:href="#DejaVuSans-2e" x="395.353516"/>
     <use xlink:href="#DejaVuSans-30" x="427.140625"/>
     <use xlink:href="#DejaVuSans-20" x="490.763672"/>
     <use xlink:href="#DejaVuSans-73" x="522.550781"/>
    </g>
   </g>
   <g id="text_25">
    <g id="patch_32">
     <path d="M 304.981875 258.652969 
L 356.698125 258.652969 
Q 359.398125 258.652969 359.398125 255.952969 
L 359.398125 247.242656 
Q 359.398125 244.542656 356.698125 244.542656 
L 304.981875 244.542656 
Q 302.281875 244.542656 302.281875 247.242656 
L 302.281875 255.952969 
Q 302.281875 258.652969 304.981875 258.652969 
z
" style="fill: #ffffff; opacity: 0.95"/>
    </g>
    <!-- TTC &gt; 4.0 s -->
    <g style="fill: #607d8b" transform="translate(304.981875 254.08125)scale(0.09 -0.09)">
     <use xlink:href="#DejaVuSans-54"/>
     <use xlink:href="#DejaVuSans-54" x="59.333984"/>
     <use xlink:href="#DejaVuSans-43" x="114.542969"/>
     <use xlink:href="#DejaVuSans-20" x="184.367188"/>
     <use xlink:href="#DejaVuSans-3e" x="216.154297"/>
     <use xlink:href="#DejaVuSans-20" x="299.943359"/>
     <use xlink:href="#DejaVuSans-34" x="331.730469"/>
     <use xlink:href="#DejaVuSans-2e" x="395.353516"/>
     <use xlink:href="#DejaVuSans-30" x="427.140625"/>
     <use xlink:href="#DejaVuSans-20" x="490.763672"/>
     <use xlink:href="#DejaVuSans-73" x="522.550781"/>
    </g>
   </g>
   <g id="text_26">
    <g id="patch_33">
     <path d="M 561.661875 163.296169 
L 613.378125 163.296169 
Q 616.078125 163.296169 616.078125 160.596169 
L 616.078125 151.885856 
Q 616.078125 149.185856 613.378125 149.185856 
L 561.661875 149.185856 
Q 558.961875 149.185856 558.961875 151.885856 
L 558.961875 160.596169 
Q 558.961875 163.296169 561.661875 163.296169 
z
" style="fill: #ffffff; opacity: 0.95"/>
    </g>
    <!-- TTC ≤ 3.0 s -->
    <g style="fill: #212121" transform="translate(561.661875 158.72445)scale(0.09 -0.09)">
     <use xlink:href="#DejaVuSans-54"/>
     <use xlink:href="#DejaVuSans-54" x="59.333984"/>
     <use xlink:href="#DejaVuSans-43" x="114.542969"/>
     <use xlink:href="#DejaVuSans-20" x="184.367188"/>
     <use xlink:href="#DejaVuSans-2264" x="216.154297"/>
     <use xlink:href="#DejaVuSans-20" x="299.943359"/>
     <use xlink:href="#DejaVuSans-33" x="331.730469"/>
     <use xlink:href="#DejaVuSans-2e" x="395.353516"/>
     <use xlink:href="#DejaVuSans-30" x="427.140625"/>
     <use xlink:href="#DejaVuSans-20" x="490.763672"/>
     <use xlink:href="#DejaVuSans-73" x="522.550781"/>
    </g>
   </g>
   <g id="text_27">
    <g id="patch_34">
     <path d="M 565.884141 243.129769 
L 609.155859 243.129769 
Q 611.855859 243.129769 611.855859 240.429769 
L 611.855859 231.719456 
Q 611.855859 229.019456 609.155859 229.019456 
L 565.884141 229.019456 
Q 563.184141 229.019456 563.184141 231.719456 
L 563.184141 240.429769 
Q 563.184141 243.129769 565.884141 243.129769 
z
" style="fill: #e1f5fe; opacity: 0.95"/>
    </g>
    <!-- D ≤ 20 m -->
    <g style="fill: #0277bd" transform="translate(565.884141 238.55805)scale(0.09 -0.09)">
     <use xlink:href="#DejaVuSans-44"/>
     <use xlink:href="#DejaVuSans-20" x="77.001953"/>
     <use xlink:href="#DejaVuSans-2264" x="108.789062"/>
     <use xlink:href="#DejaVuSans-20" x="192.578125"/>
     <use xlink:href="#DejaVuSans-32" x="224.365234"/>
     <use xlink:href="#DejaVuSans-30" x="287.988281"/>
     <use xlink:href="#DejaVuSans-20" x="351.611328"/>
     <use xlink:href="#DejaVuSans-6d" x="383.398438"/>
    </g>
   </g>
   <g id="text_28">
    <g id="patch_35">
     <path d="M 740.221875 163.296169 
L 791.938125 163.296169 
Q 794.638125 163.296169 794.638125 160.596169 
L 794.638125 151.885856 
Q 794.638125 149.185856 791.938125 149.185856 
L 740.221875 149.185856 
Q 737.521875 149.185856 737.521875 151.885856 
L 737.521875 160.596169 
Q 737.521875 163.296169 740.221875 163.296169 
z
" style="fill: #ffffff; opacity: 0.95"/>
    </g>
    <!-- TTC ≤ 2.2 s -->
    <g style="fill: #212121" transform="translate(740.221875 158.72445)scale(0.09 -0.09)">
     <use xlink:href="#DejaVuSans-54"/>
     <use xlink:href="#DejaVuSans-54" x="59.333984"/>
     <use xlink:href="#DejaVuSans-43" x="114.542969"/>
     <use xlink:href="#DejaVuSans-20" x="184.367188"/>
     <use xlink:href="#DejaVuSans-2264" x="216.154297"/>
     <use xlink:href="#DejaVuSans-20" x="299.943359"/>
     <use xlink:href="#DejaVuSans-32" x="331.730469"/>
     <use xlink:href="#DejaVuSans-2e" x="395.353516"/>
     <use xlink:href="#DejaVuSans-32" x="427.140625"/>
     <use xlink:href="#DejaVuSans-20" x="490.763672"/>
     <use xlink:href="#DejaVuSans-73" x="522.550781"/>
    </g>
   </g>
   <g id="text_29">
    <g id="patch_36">
     <path d="M 744.444141 243.129769 
L 787.715859 243.129769 
Q 790.415859 243.129769 790.415859 240.429769 
L 790.415859 231.719456 
Q 790.415859 229.019456 787.715859 229.019456 
L 744.444141 229.019456 
Q 741.744141 229.019456 741.744141 231.719456 
L 741.744141 240.429769 
Q 741.744141 243.129769 744.444141 243.129769 
z
" style="fill: #e1f5fe; opacity: 0.95"/>
    </g>
    <!-- D ≤ 10 m -->
    <g style="fill: #0277bd" transform="translate(744.444141 238.55805)scale(0.09 -0.09)">
     <use xlink:href="#DejaVuSans-44"/>
     <use xlink:href="#DejaVuSans-20" x="77.001953"/>
     <use xlink:href="#DejaVuSans-2264" x="108.789062"/>
     <use xlink:href="#DejaVuSans-20" x="192.578125"/>
     <use xlink:href="#DejaVuSans-31" x="224.365234"/>
     <use xlink:href="#DejaVuSans-30" x="287.988281"/>
     <use xlink:href="#DejaVuSans-20" x="351.611328"/>
     <use xlink:href="#DejaVuSans-6d" x="383.398438"/>
    </g>
   </g>
   <g id="text_30">
    <g id="patch_37">
     <path d="M 918.781875 163.296169 
L 970.498125 163.296169 
Q 973.198125 163.296169 973.198125 160.596169 
L 973.198125 151.885856 
Q 973.198125 149.185856 970.498125 149.185856 
L 918.781875 149.185856 
Q 916.081875 149.185856 916.081875 151.885856 
L 916.081875 160.596169 
Q 916.081875 163.296169 918.781875 163.296169 
z
" style="fill: #ffffff; opacity: 0.95"/>
    </g>
    <!-- TTC ≤ 1.8 s -->
    <g style="fill: #212121" transform="translate(918.781875 158.72445)scale(0.09 -0.09)">
     <use xlink:href="#DejaVuSans-54"/>
     <use xlink:href="#DejaVuSans-54" x="59.333984"/>
     <use xlink:href="#DejaVuSans-43" x="114.542969"/>
     <use xlink:href="#DejaVuSans-20" x="184.367188"/>
     <use xlink:href="#DejaVuSans-2264" x="216.154297"/>
     <use xlink:href="#DejaVuSans-20" x="299.943359"/>
     <use xlink:href="#DejaVuSans-31" x="331.730469"/>
     <use xlink:href="#DejaVuSans-2e" x="395.353516"/>
     <use xlink:href="#DejaVuSans-38" x="427.140625"/>
     <use xlink:href="#DejaVuSans-20" x="490.763672"/>
     <use xlink:href="#DejaVuSans-73" x="522.550781"/>
    </g>
   </g>
   <g id="text_31">
    <g id="patch_38">
     <path d="M 925.867266 243.129769 
L 963.412734 243.129769 
Q 966.112734 243.129769 966.112734 240.429769 
L 966.112734 231.719456 
Q 966.112734 229.019456 963.412734 229.019456 
L 925.867266 229.019456 
Q 923.167266 229.019456 923.167266 231.719456 
L 923.167266 240.429769 
Q 923.167266 243.129769 925.867266 243.129769 
z
" style="fill: #e1f5fe; opacity: 0.95"/>
    </g>
    <!-- D ≤ 5 m -->
    <g style="fill: #0277bd" transform="translate(925.867266 238.55805)scale(0.09 -0.09)">
     <use xlink:href="#DejaVuSans-44"/>
     <use xlink:href="#DejaVuSans-20" x="77.001953"/>
     <use xlink:href="#DejaVuSans-2264" x="108.789062"/>
     <use xlink:href="#DejaVuSans-20" x="192.578125"/>
     <use xlink:href="#DejaVuSans-35" x="224.365234"/>
     <use xlink:href="#DejaVuSans-20" x="287.988281"/>
     <use xlink:href="#DejaVuSans-6d" x="319.775391"/>
    </g>
   </g>
   <g id="text_32">
    <g id="patch_39">
     <path d="M 1150.633125 283.646672 
L 1196.206875 283.646672 
Q 1198.906875 283.646672 1198.906875 280.946672 
L 1198.906875 272.144953 
Q 1198.906875 269.444953 1196.206875 269.444953 
L 1150.633125 269.444953 
Q 1147.933125 269.444953 1147.933125 272.144953 
L 1147.933125 280.946672 
Q 1147.933125 283.646672 1150.633125 283.646672 
z
" style="fill: #ede7f6; opacity: 0.95"/>
    </g>
    <!-- v_ego = 0 -->
    <g style="fill: #311b92" transform="translate(1150.633125 278.824641)scale(0.09 -0.09)">
     <use xlink:href="#DejaVuSans-76"/>
     <use xlink:href="#DejaVuSans-5f" x="59.179688"/>
     <use xlink:href="#DejaVuSans-65" x="109.179688"/>
     <use xlink:href="#DejaVuSans-67" x="170.703125"/>
     <use xlink:href="#DejaVuSans-6f" x="234.179688"/>
     <use xlink:href="#DejaVuSans-20" x="295.361328"/>
     <use xlink:href="#DejaVuSans-3d" x="327.148438"/>
     <use xlink:href="#DejaVuSans-20" x="410.9375"/>
     <use xlink:href="#DejaVuSans-30" x="442.724609"/>
    </g>
   </g>
   <g id="text_33">
    <g id="patch_40">
     <path d="M 704.582578 519.220969 
L 816.417422 519.220969 
Q 819.117422 519.220969 819.117422 516.520969 
L 819.117422 507.810656 
Q 819.117422 505.110656 816.417422 505.110656 
L 704.582578 505.110656 
Q 701.882578 505.110656 701.882578 507.810656 
L 701.882578 516.520969 
Q 701.882578 519.220969 704.582578 519.220969 
z
" style="fill: #e3f2fd; opacity: 0.95"/>
    </g>
    <!-- 2 s elapsed  →  STANDBY -->
    <g style="fill: #1565c0" transform="translate(704.582578 514.64925)scale(0.09 -0.09)">
     <defs>
      <path id="DejaVuSans-2192" d="M 5050 2147 
L 5050 1866 
L 3822 638 
L 3447 1013 
L 4175 1741 
L 366 1741 
L 366 2272 
L 4175 2272 
L 3447 3000 
L 3822 3375 
L 5050 2147 
z
" transform="scale(0.015625)"/>
      <path id="DejaVuSans-59" d="M -13 4666 
L 666 4666 
L 1959 2747 
L 3244 4666 
L 3922 4666 
L 2272 2222 
L 2272 0 
L 1638 0 
L 1638 2222 
L -13 4666 
z
" transform="scale(0.015625)"/>
     </defs>
     <use xlink:href="#DejaVuSans-32"/>
     <use xlink:href="#DejaVuSans-20" x="63.623047"/>
     <use xlink:href="#DejaVuSans-73" x="95.410156"/>
     <use xlink:href="#DejaVuSans-20" x="147.509766"/>
     <use xlink:href="#DejaVuSans-65" x="179.296875"/>
     <use xlink:href="#DejaVuSans-6c" x="240.820312"/>
     <use xlink:href="#DejaVuSans-61" x="268.603516"/>
     <use xlink:href="#DejaVuSans-70" x="329.882812"/>
     <use xlink:href="#DejaVuSans-73" x="393.359375"/>
     <use xlink:href="#DejaVuSans-65" x="445.458984"/>
     <use xlink:href="#DejaVuSans-64" x="506.982422"/>
     <use xlink:href="#DejaVuSans-20" x="570.458984"/>
     <use xlink:href="#DejaVuSans-20" x="602.246094"/>
     <use xlink:href="#DejaVuSans-2192" x="634.033203"/>
     <use xlink:href="#DejaVuSans-20" x="717.822266"/>
     <use xlink:href="#DejaVuSans-20" x="749.609375"/>
     <use xlink:href="#DejaVuSans-53" x="781.396484"/>
     <use xlink:href="#DejaVuSans-54" x="844.873047"/>
     <use xlink:href="#DejaVuSans-41" x="898.207031"/>
     <use xlink:href="#DejaVuSans-4e" x="966.615234"/>
     <use xlink:href="#DejaVuSans-44" x="1041.419922"/>
     <use xlink:href="#DejaVuSans-42" x="1118.421875"/>
     <use xlink:href="#DejaVuSans-59" x="1181.525391"/>
    </g>
   </g>
   <g id="text_34">
    <g id="patch_41">
     <path d="M 647.994531 568.725016 
L 873.005469 568.725016 
Q 875.555469 568.725016 875.555469 566.175016 
L 875.555469 557.948609 
Q 875.555469 555.398609 873.005469 555.398609 
L 647.994531 555.398609 
Q 645.444531 555.398609 645.444531 557.948609 
L 645.444531 566.175016 
Q 645.444531 568.725016 647.994531 568.725016 
z
" style="fill: #f9fbe7; opacity: 0.95"/>
    </g>
    <!-- Accelerator applied  →  STANDBY  (POST-BRAKE only) -->
    <g style="fill: #558b2f" transform="translate(647.994531 564.407281)scale(0.085 -0.085)">
     <use xlink:href="#DejaVuSans-41"/>
     <use xlink:href="#DejaVuSans-63" x="66.658203"/>
     <use xlink:href="#DejaVuSans-63" x="121.638672"/>
     <use xlink:href="#DejaVuSans-65" x="176.619141"/>
     <use xlink:href="#DejaVuSans-6c" x="238.142578"/>
     <use xlink:href="#DejaVuSans-65" x="265.925781"/>
     <use xlink:href="#DejaVuSans-72" x="327.449219"/>
     <use xlink:href="#DejaVuSans-61" x="368.5625"/>
     <use xlink:href="#DejaVuSans-74" x="429.841797"/>
     <use xlink:href="#DejaVuSans-6f" x="469.050781"/>
     <use xlink:href="#DejaVuSans-72" x="530.232422"/>
     <use xlink:href="#DejaVuSans-20" x="571.345703"/>
     <use xlink:href="#DejaVuSans-61" x="603.132812"/>
     <use xlink:href="#DejaVuSans-70" x="664.412109"/>
     <use xlink:href="#DejaVuSans-70" x="727.888672"/>
     <use xlink:href="#DejaVuSans-6c" x="791.365234"/>
     <use xlink:href="#DejaVuSans-69" x="819.148438"/>
     <use xlink:href="#DejaVuSans-65" x="846.931641"/>
     <use xlink:href="#DejaVuSans-64" x="908.455078"/>
     <use xlink:href="#DejaVuSans-20" x="971.931641"/>
     <use xlink:href="#DejaVuSans-20" x="1003.71875"/>
     <use xlink:href="#DejaVuSans-2192" x="1035.505859"/>
     <use xlink:href="#DejaVuSans-20" x="1119.294922"/>
     <use xlink:href="#DejaVuSans-20" x="1151.082031"/>
     <use xlink:href="#DejaVuSans-53" x="1182.869141"/>
     <use xlink:href="#DejaVuSans-54" x="1246.345703"/>
     <use xlink:href="#DejaVuSans-41" x="1299.679688"/>
     <use xlink:href="#DejaVuSans-4e" x="1368.087891"/>
     <use xlink:href="#DejaVuSans-44" x="1442.892578"/>
     <use xlink:href="#DejaVuSans-42" x="1519.894531"/>
     <use xlink:href="#DejaVuSans-59" x="1582.998047"/>
     <use xlink:href="#DejaVuSans-20" x="1644.082031"/>
     <use xlink:href="#DejaVuSans-20" x="1675.869141"/>
     <use xlink:href="#DejaVuSans-28" x="1707.65625"/>
     <use xlink:href="#DejaVuSans-50" x="1746.669922"/>
     <use xlink:href="#DejaVuSans-4f" x="1806.972656"/>
     <use xlink:href="#DejaVuSans-53" x="1885.683594"/>
     <use xlink:href="#DejaVuSans-54" x="1949.160156"/>
     <use xlink:href="#DejaVuSans-2d" x="2001.119141"/>
     <use xlink:href="#DejaVuSans-42" x="2033.578125"/>
     <use xlink:href="#DejaVuSans-52" x="2102.181641"/>
     <use xlink:href="#DejaVuSans-41" x="2167.664062"/>
     <use xlink:href="#DejaVuSans-4b" x="2236.072266"/>
     <use xlink:href="#DejaVuSans-45" x="2301.648438"/>
     <use xlink:href="#DejaVuSans-20" x="2364.832031"/>
     <use xlink:href="#DejaVuSans-6f" x="2396.619141"/>
     <use xlink:href="#DejaVuSans-6e" x="2457.800781"/>
     <use xlink:href="#DejaVuSans-6c" x="2521.179688"/>
     <use xlink:href="#DejaVuSans-79" x="2548.962891"/>
     <use xlink:href="#DejaVuSans-29" x="2608.142578"/>
    </g>
   </g>
   <g id="text_35">
    <g id="patch_42">
     <path d="M 631.807734 337.377769 
L 900.352266 337.377769 
Q 903.052266 337.377769 903.052266 334.677769 
L 903.052266 325.967456 
Q 903.052266 323.267456 900.352266 323.267456 
L 631.807734 323.267456 
Q 629.107734 323.267456 629.107734 325.967456 
L 629.107734 334.677769 
Q 629.107734 337.377769 631.807734 337.377769 
z
" style="fill: #f1f8e9; opacity: 0.95"/>
    </g>
    <!-- Driver override: brake pedal  or  steering &gt; 5°  →  STANDBY -->
    <g style="fill: #2e7d32" transform="translate(631.807734 332.80605)scale(0.09 -0.09)">
     <use xlink:href="#DejaVuSans-44"/>
     <use xlink:href="#DejaVuSans-72" x="77.001953"/>
     <use xlink:href="#DejaVuSans-69" x="118.115234"/>
     <use xlink:href="#DejaVuSans-76" x="145.898438"/>
     <use xlink:href="#DejaVuSans-65" x="205.078125"/>
     <use xlink:href="#DejaVuSans-72" x="266.601562"/>
     <use xlink:href="#DejaVuSans-20" x="307.714844"/>
     <use xlink:href="#DejaVuSans-6f" x="339.501953"/>
     <use xlink:href="#DejaVuSans-76" x="400.683594"/>
     <use xlink:href="#DejaVuSans-65" x="459.863281"/>
     <use xlink:href="#DejaVuSans-72" x="521.386719"/>
     <use xlink:href="#DejaVuSans-72" x="560.75"/>
     <use xlink:href="#DejaVuSans-69" x="601.863281"/>
     <use xlink:href="#DejaVuSans-64" x="629.646484"/>
     <use xlink:href="#DejaVuSans-65" x="693.123047"/>
     <use xlink:href="#DejaVuSans-3a" x="754.646484"/>
     <use xlink:href="#DejaVuSans-20" x="788.337891"/>
     <use xlink:href="#DejaVuSans-62" x="820.125"/>
     <use xlink:href="#DejaVuSans-72" x="883.601562"/>
     <use xlink:href="#DejaVuSans-61" x="924.714844"/>
     <use xlink:href="#DejaVuSans-6b" x="985.994141"/>
     <use xlink:href="#DejaVuSans-65" x="1040.279297"/>
     <use xlink:href="#DejaVuSans-20" x="1101.802734"/>
     <use xlink:href="#DejaVuSans-70" x="1133.589844"/>
     <use xlink:href="#DejaVuSans-65" x="1197.066406"/>
     <use xlink:href="#DejaVuSans-64" x="1258.589844"/>
     <use xlink:href="#DejaVuSans-61" x="1322.066406"/>
     <use xlink:href="#DejaVuSans-6c" x="1383.345703"/>
     <use xlink:href="#DejaVuSans-20" x="1411.128906"/>
     <use xlink:href="#DejaVuSans-20" x="1442.916016"/>
     <use xlink:href="#DejaVuSans-6f" x="1474.703125"/>
     <use xlink:href="#DejaVuSans-72" x="1535.884766"/>
     <use xlink:href="#DejaVuSans-20" x="1576.998047"/>
     <use xlink:href="#DejaVuSans-20" x="1608.785156"/>
     <use xlink:href="#DejaVuSans-73" x="1640.572266"/>
     <use xlink:href="#DejaVuSans-74" x="1692.671875"/>
     <use xlink:href="#DejaVuSans-65" x="1731.880859"/>
     <use xlink:href="#DejaVuSans-65" x="1793.404297"/>
     <use xlink:href="#DejaVuSans-72" x="1854.927734"/>
     <use xlink:href="#DejaVuSans-69" x="1896.041016"/>
     <use xlink:href="#DejaVuSans-6e" x="1923.824219"/>
     <use xlink:href="#DejaVuSans-67" x="1987.203125"/>
     <use xlink:href="#DejaVuSans-20" x="2050.679688"/>
     <use xlink:href="#DejaVuSans-3e" x="2082.466797"/>
     <use xlink:href="#DejaVuSans-20" x="2166.255859"/>
     <use xlink:href="#DejaVuSans-35" x="2198.042969"/>
     <use xlink:href="#DejaVuSans-b0" x="2261.666016"/>
     <use xlink:href="#DejaVuSans-20" x="2311.666016"/>
     <use xlink:href="#DejaVuSans-20" x="2343.453125"/>
     <use xlink:href="#DejaVuSans-2192" x="2375.240234"/>
     <use xlink:href="#DejaVuSans-20" x="2459.029297"/>
     <use xlink:href="#DejaVuSans-20" x="2490.816406"/>
     <use xlink:href="#DejaVuSans-53" x="2522.603516"/>
     <use xlink:href="#DejaVuSans-54" x="2586.080078"/>
     <use xlink:href="#DejaVuSans-41" x="2639.414062"/>
     <use xlink:href="#DejaVuSans-4e" x="2707.822266"/>
     <use xlink:href="#DejaVuSans-44" x="2782.626953"/>
     <use xlink:href="#DejaVuSans-42" x="2859.628906"/>
     <use xlink:href="#DejaVuSans-59" x="2922.732422"/>
    </g>
   </g>
  </g>
 </g>
 <defs>
  <clipPath id="p046ed7dd74">
   <rect x="7.2" y="29.837813" width="1339.2" height="609.84"/>
  </clipPath>
 </defs>
</svg>
